<?xml version="1.0" encoding="UTF-8"?>
<!DOCTYPE svg PUBLIC "-//W3C//DTD SVG 1.1//EN" "http://www.w3.org/Graphics/SVG/1.1/DTD/svg11.dtd">
<!-- Creator: CorelDRAW 2019 (64-Bit) -->
<svg xmlns="http://www.w3.org/2000/svg" xml:space="preserve" width="225.778mm" height="81.1389mm" version="1.1" style="shape-rendering:geometricPrecision; text-rendering:geometricPrecision; image-rendering:optimizeQuality; fill-rule:evenodd; clip-rule:evenodd"
viewBox="0 0 22349.04 8031.69"
 xmlns:xlink="http://www.w3.org/1999/xlink">
 <defs>
  <style type="text/css">
   <![CDATA[
    .fil0 {fill:none}
    .fil4 {fill:black}
    .fil5 {fill:#FEFEFE}
    .fil2 {fill:white}
    .fil7 {fill:black;fill-rule:nonzero}
    .fil3 {fill:black;fill-rule:nonzero}
    .fil1 {fill:#2B2A29;fill-rule:nonzero}
    .fil8 {fill:#EBECEC;fill-rule:nonzero}
    .fil6 {fill:#FEFEFE;fill-rule:nonzero}
   ]]>
  </style>
 </defs>
 <g id="Layer_x0020_1">
  <metadata id="CorelCorpID_0Corel-Layer"/>
  <polygon class="fil0" points="-0,0 22349.04,0 22349.04,8031.69 -0,8031.69 "/>
  <g id="_2380022725824">
   <g>
    <path class="fil1" d="M1571.51 653.03c58.53,-41.52 109.31,-34.01 152.18,26.4l28.92 40.71c345.43,486.06 500.63,704.42 523.04,1582.22 1.27,49.46 1.81,98.89 1.65,148.16 175.33,-60.72 353.45,-11.78 541.62,39.95 118.99,32.72 242.71,66.73 366.53,66.73 120.57,0 246.2,-35.89 367.99,-70.69 184.77,-52.78 362.01,-103.41 533.98,-51.55 -1.57,-34.23 -2.86,-70.21 -3.83,-107.98 -9.32,-365.51 89.37,-486.77 231.67,-490.4 126.7,-3.24 260.09,111.08 375.64,210.12 57.79,49.52 46.49,143.29 77.03,117.74 3.21,-2.68 7.66,-53.86 18.85,-112.01 22.5,-116.99 45.73,-237.79 135.73,-267.39 95.35,-31.36 204.67,75.51 340.7,489.06 62.44,189.84 30.36,372.9 0.53,543.03 -8.96,51.11 -17.7,100.94 -22.84,145.75l-2.14 18.67 -9.48 17.35c-25.93,47.49 -51.95,109.77 -76.94,185.33 -24.87,75.16 -47.77,160.7 -67.62,254.96 -8.04,38.14 -15.41,77.34 -22.19,117.31 -5.51,32.52 -10.41,64.08 -14.76,94.73 61.13,167.21 105.52,343.79 136.75,527.47 32.29,189.9 50.47,388.25 58.58,592.26 7.84,197.22 6.2,396.49 -18.63,581.21 -25.71,191.28 -76.36,367.47 -166.75,511.37l-10.14 16.12 -15.82 11.37c-106.12,76.31 -211.96,177.03 -313.35,291.87 -113.48,128.54 -221.43,275.22 -318.16,425.71 -44.62,69.44 -82.52,142.11 -115.94,215.78 -34.53,76.11 -63.92,152.07 -90.86,226.39l-10.93 30.11 -26.26 17.92c-144.52,98.56 -299.9,175.68 -463.61,227.97 -159.52,50.94 -325.5,77.98 -495.55,77.98 -180.54,0 -355.97,-30.24 -523.47,-86.98 -171.25,-58.01 -334.05,-144.17 -485.33,-254.44l-24.15 -17.61 -10.31 -27.32c-25.96,-68.76 -55.9,-139.07 -89.93,-210.49 -33.04,-69.33 -68.8,-137.28 -107.24,-203.2 -83.11,-142.49 -175.03,-271.23 -272.16,-384.3 -99.62,-115.96 -204.83,-215.36 -311.66,-296.06l-23.16 -17.5 -10.15 -28.2c-61.62,-171.31 -109.35,-351.59 -141.22,-538.42 -31.16,-182.61 -47.62,-371.82 -47.62,-565.43 0,-209.59 19.36,-414.53 55.91,-611.9 35.76,-193.12 87.81,-377.47 154.11,-550.44 -4.15,-19.6 -8.91,-41.16 -14.37,-64.98 -7.12,-31.1 -14.64,-61.84 -22.61,-92.03 -23.31,-88.34 -48.57,-167.85 -74.84,-237.42 -26.68,-70.66 -54.15,-130.49 -81.39,-178.31l-8.72 -15.29 -2.9 -16.86c-7.82,-45.4 -20.05,-96.74 -32.62,-149.46 -41.45,-173.95 -86.19,-361.72 -27.96,-560.99 100.03,-342.42 185.3,-687.57 254.46,-967.5 90.93,-368.05 155.55,-629.63 221.77,-676.62zm83.3 271.12c-25.66,99.4 -65.22,259.52 -112.95,452.76 -69,279.31 -154.09,623.72 -256.79,975.25 -43.3,148.19 -4.69,310.21 31.07,460.28 11.6,48.69 22.93,96.24 31.96,145.21 29.39,53.72 58.34,117.67 85.92,190.7 28.61,75.76 55.97,161.79 81.03,256.78 8.64,32.73 16.67,65.51 24.16,98.23 6.39,27.89 13.45,61.23 21.01,98.75l5.82 28.86 -10.46 26.52c-67.22,170.33 -119.49,351.65 -154.57,541.07 -34.01,183.69 -52.03,376.62 -52.03,576.26 0,183.37 15.39,361.39 44.52,532.12 28.49,167.02 69.72,326.78 122.15,477.48 109.35,85.35 216.91,188.45 319.11,307.41 104.71,121.89 203.71,260.5 293.08,413.74 42.51,72.9 80.81,145.43 114.98,217.15 30.89,64.83 59.36,131.01 85.44,198.07 127.69,89.85 264.74,160.71 408.88,209.53 146.61,49.66 300.74,76.13 459.95,76.13 151.03,0 296.99,-23.55 435.9,-67.91 134.46,-42.94 263.67,-105.71 385.75,-185.81 25.86,-69.97 53.69,-140.49 85.08,-209.67 37.07,-81.73 79.45,-162.88 129.88,-241.35 101.11,-157.29 215.23,-312.06 336.75,-449.72 105.45,-119.45 216.42,-225.68 329.33,-309.24 67.96,-114.97 107.45,-258.77 128.7,-416.92 23.1,-171.87 24.52,-359.96 17.09,-547.14 -7.75,-194.85 -25.21,-384.81 -56.26,-567.46 -30.63,-180.17 -74.52,-352.36 -135.46,-513.95l-8.76 -23.22 3.34 -24.81c5.82,-43.36 12.11,-85.26 18.9,-125.3 7,-41.27 14.89,-82.98 23.75,-125.05 21.93,-104.14 46.64,-196.88 73.04,-276.66 25.41,-76.82 53.19,-144.06 82.27,-200.19 5.93,-46.5 13.95,-92.25 22.15,-139.03 25.74,-146.85 53.44,-304.86 6.44,-447.75 -88.72,-269.7 -76.53,-366.87 -91.28,-362.01 -21.21,6.98 9.18,55.66 -2.49,116.33 -17.96,93.35 -35.41,184.14 -86.24,226.66 -97.88,81.93 -206.52,-11.18 -332.66,-119.29 -88.91,-76.2 -191.55,-164.16 -242.4,-162.86 -26.88,0.69 -44.32,71.53 -38.78,288.22 1.11,43.32 2.96,88.77 5.49,136.11 2.24,41.71 5.4,87.42 9.41,136.66l18.25 224.24 -177.83 -138.65c-145.18,-113.2 -331.64,-59.94 -528.8,-3.61 -135.15,38.61 -274.55,78.44 -422.22,78.44 -147.54,0 -285.63,-37.96 -418.43,-74.48 -196.76,-54.09 -379.72,-104.38 -530,16.29l-168.98 135.71 8.25 -216.28c1.97,-51.75 3.13,-102.99 3.42,-153.54 0.3,-50.81 -0.23,-102.91 -1.59,-156.22 -19.42,-761.08 -146.13,-989.43 -423.31,-1382.86z"/>
    <path class="fil1" d="M1571.51 653.03c58.53,-41.52 109.31,-34.01 152.18,26.4l28.92 40.71c345.43,486.06 500.63,704.42 523.04,1582.22 1.27,49.46 1.81,98.89 1.65,148.16 175.33,-60.72 353.45,-11.78 541.62,39.95 118.99,32.72 242.71,66.73 366.53,66.73 120.57,0 246.2,-35.89 367.99,-70.69 184.77,-52.78 362.01,-103.41 533.98,-51.55 -1.57,-34.23 -2.86,-70.21 -3.83,-107.98 -9.32,-365.51 89.37,-486.77 231.67,-490.4 126.7,-3.24 260.09,111.08 375.64,210.12 57.79,49.52 46.49,143.29 77.03,117.74 3.21,-2.68 7.66,-53.86 18.85,-112.01 22.5,-116.99 45.73,-237.79 135.73,-267.39 95.35,-31.36 204.67,75.51 340.7,489.06 62.44,189.84 30.36,372.9 0.53,543.03 -8.96,51.11 -17.7,100.94 -22.84,145.75l-2.14 18.67 -9.48 17.35c-25.93,47.49 -51.95,109.77 -76.94,185.33 -24.87,75.16 -47.77,160.7 -67.62,254.96 -8.04,38.14 -15.41,77.34 -22.19,117.31 -5.51,32.52 -10.41,64.08 -14.76,94.73 61.13,167.21 105.52,343.79 136.75,527.47 32.29,189.9 50.47,388.25 58.58,592.26 7.84,197.22 6.2,396.49 -18.63,581.21 -25.71,191.28 -76.36,367.47 -166.75,511.37l-10.14 16.12 -15.82 11.37c-106.12,76.31 -211.96,177.03 -313.35,291.87 -113.48,128.54 -221.43,275.22 -318.16,425.71 -44.62,69.44 -82.52,142.11 -115.94,215.78 -34.53,76.11 -63.92,152.07 -90.86,226.39l-10.93 30.11 -26.26 17.92c-144.52,98.56 -299.9,175.68 -463.61,227.97 -159.52,50.94 -325.5,77.98 -495.55,77.98 -180.54,0 -355.97,-30.24 -523.47,-86.98 -171.25,-58.01 -334.05,-144.17 -485.33,-254.44l-24.15 -17.61 -10.31 -27.32c-25.96,-68.76 -55.9,-139.07 -89.93,-210.49 -33.04,-69.33 -68.8,-137.28 -107.24,-203.2 -83.11,-142.49 -175.03,-271.23 -272.16,-384.3 -99.62,-115.96 -204.83,-215.36 -311.66,-296.06l-23.16 -17.5 -10.15 -28.2c-61.62,-171.31 -109.35,-351.59 -141.22,-538.42 -31.16,-182.61 -47.62,-371.82 -47.62,-565.43 0,-209.59 19.36,-414.53 55.91,-611.9 35.76,-193.12 87.81,-377.47 154.11,-550.44 -4.15,-19.6 -8.91,-41.16 -14.37,-64.98 -7.12,-31.1 -14.64,-61.84 -22.61,-92.03 -23.31,-88.34 -48.57,-167.85 -74.84,-237.42 -26.68,-70.66 -54.15,-130.49 -81.39,-178.31l-8.72 -15.29 -2.9 -16.86c-7.82,-45.4 -20.05,-96.74 -32.62,-149.46 -41.45,-173.95 -86.19,-361.72 -27.96,-560.99 100.03,-342.42 185.3,-687.57 254.46,-967.5 90.93,-368.05 155.55,-629.63 221.77,-676.62zm83.3 271.12c-25.66,99.4 -65.22,259.52 -112.95,452.76 -69,279.31 -154.09,623.72 -256.79,975.25 -43.3,148.19 -4.69,310.21 31.07,460.28 11.6,48.69 22.93,96.24 31.96,145.21 29.39,53.72 58.34,117.67 85.92,190.7 28.61,75.76 55.97,161.79 81.03,256.78 8.64,32.73 16.67,65.51 24.16,98.23 6.39,27.89 13.45,61.23 21.01,98.75l5.82 28.86 -10.46 26.52c-67.22,170.33 -119.49,351.65 -154.57,541.07 -34.01,183.69 -52.03,376.62 -52.03,576.26 0,183.37 15.39,361.39 44.52,532.12 28.49,167.02 69.72,326.78 122.15,477.48 109.35,85.35 216.91,188.45 319.11,307.41 104.71,121.89 203.71,260.5 293.08,413.74 42.51,72.9 80.81,145.43 114.98,217.15 30.89,64.83 59.36,131.01 85.44,198.07 127.69,89.85 264.74,160.71 408.88,209.53 146.61,49.66 300.74,76.13 459.95,76.13 151.03,0 296.99,-23.55 435.9,-67.91 134.46,-42.94 263.67,-105.71 385.75,-185.81 25.86,-69.97 53.69,-140.49 85.08,-209.67 37.07,-81.73 79.45,-162.88 129.88,-241.35 101.11,-157.29 215.23,-312.06 336.75,-449.72 105.45,-119.45 216.42,-225.68 329.33,-309.24 67.96,-114.97 107.45,-258.77 128.7,-416.92 23.1,-171.87 24.52,-359.96 17.09,-547.14 -7.75,-194.85 -25.21,-384.81 -56.26,-567.46 -30.63,-180.17 -74.52,-352.36 -135.46,-513.95l-8.76 -23.22 3.34 -24.81c5.82,-43.36 12.11,-85.26 18.9,-125.3 7,-41.27 14.89,-82.98 23.75,-125.05 21.93,-104.14 46.64,-196.88 73.04,-276.66 25.41,-76.82 53.19,-144.06 82.27,-200.19 5.93,-46.5 13.95,-92.25 22.15,-139.03 25.74,-146.85 53.44,-304.86 6.44,-447.75 -88.72,-269.7 -76.53,-366.87 -91.28,-362.01 -21.21,6.98 9.18,55.66 -2.49,116.33 -17.96,93.35 -35.41,184.14 -86.24,226.66 -97.88,81.93 -206.52,-11.18 -332.66,-119.29 -88.91,-76.2 -191.55,-164.16 -242.4,-162.86 -26.88,0.69 -44.32,71.53 -38.78,288.22 1.11,43.32 2.96,88.77 5.49,136.11 2.24,41.71 5.4,87.42 9.41,136.66l18.25 224.24 -177.83 -138.65c-145.18,-113.2 -331.64,-59.94 -528.8,-3.61 -135.15,38.61 -274.55,78.44 -422.22,78.44 -147.54,0 -285.63,-37.96 -418.43,-74.48 -196.76,-54.09 -379.72,-104.38 -530,16.29l-168.98 135.71 8.25 -216.28c1.97,-51.75 3.13,-102.99 3.42,-153.54 0.3,-50.81 -0.23,-102.91 -1.59,-156.22 -19.42,-761.08 -146.13,-989.43 -423.31,-1382.86z"/>
    <path id="path2987" class="fil2" d="M1643.12 736.75c-56.88,-80.15 -207.42,747.42 -452.95,1587.9 -67.51,231.06 28.47,464.16 63.29,666.3 58.51,102.67 116.64,252.56 165.92,439.34 16.61,62.94 31.08,127.03 44.01,191.17 -136.51,345.92 -213.56,737.9 -213.56,1153.36 0,382.71 65.67,745.33 182.65,1070.54 220.35,166.47 434.18,408.72 609.77,709.8 82.17,140.88 150.05,285.11 204.14,428.4 281.18,204.93 605.4,322.05 950.71,322.05 326.09,0 633.34,-104.35 903.39,-288.52 55.95,-154.31 121.44,-314.03 216.49,-461.93 188.14,-292.7 420.13,-573.95 657.07,-744.31 164.16,-261.31 185.56,-651.62 170.29,-1036.03 -15.87,-398.86 -71.28,-776.63 -197.93,-1112.4 10.97,-81.57 24.58,-163.16 41.49,-243.38 42.52,-202.05 97.23,-362.3 154.63,-467.4 22.66,-197.68 99.25,-426 26.57,-646.96 -290.05,-881.74 -253.2,-135 -337.64,-64.34 -106.77,89.37 -671.32,-787.11 -649.09,84.31 2.44,95.06 7.56,187.91 14.91,278.18 -292.34,-227.93 -646.14,53.52 -1011.82,53.52 -374.87,0 -713.28,-274.72 -1010.39,-36.11 3.89,-102.07 4.59,-207.54 1.82,-315.56 -22.24,-871.44 -180.05,-1069.56 -533.76,-1567.93z"/>
    <path class="fil3" d="M1571.51 653.03c58.53,-41.52 109.31,-34.01 152.18,26.4l28.92 40.71c345.43,486.06 500.63,704.42 523.04,1582.22 1.27,49.46 1.81,98.89 1.65,148.16 175.33,-60.72 353.45,-11.78 541.62,39.95 118.99,32.72 242.71,66.73 366.53,66.73 120.57,0 246.2,-35.89 367.99,-70.69 184.77,-52.78 362.01,-103.41 533.98,-51.55 -1.57,-34.23 -2.86,-70.21 -3.83,-107.98 -9.32,-365.51 89.37,-486.77 231.67,-490.4 126.7,-3.24 260.09,111.08 375.64,210.12 57.79,49.52 46.49,143.29 77.03,117.74 3.21,-2.68 7.66,-53.86 18.85,-112.01 22.5,-116.99 45.73,-237.79 135.73,-267.39 95.35,-31.36 204.67,75.51 340.7,489.06 62.44,189.84 30.36,372.9 0.53,543.03 -8.96,51.11 -17.7,100.94 -22.84,145.75l-2.14 18.67 -9.48 17.35c-25.93,47.49 -51.95,109.77 -76.94,185.33 -24.87,75.16 -47.77,160.7 -67.62,254.96 -8.04,38.14 -15.41,77.34 -22.19,117.31 -5.51,32.52 -10.41,64.08 -14.76,94.73 61.13,167.21 105.52,343.79 136.75,527.47 32.29,189.9 50.47,388.25 58.58,592.26 7.84,197.22 6.2,396.49 -18.63,581.21 -25.71,191.28 -76.36,367.47 -166.75,511.37l-10.14 16.12 -15.82 11.37c-106.12,76.31 -211.96,177.03 -313.35,291.87 -113.48,128.54 -221.43,275.22 -318.16,425.71 -44.62,69.44 -82.52,142.11 -115.94,215.78 -34.53,76.11 -63.92,152.07 -90.86,226.39l-10.93 30.11 -26.26 17.92c-144.52,98.56 -299.9,175.68 -463.61,227.97 -159.52,50.94 -325.5,77.98 -495.55,77.98 -180.53,0 -355.97,-30.24 -523.47,-86.98 -171.25,-58.01 -334.05,-144.17 -485.33,-254.44l-24.15 -17.61 -10.31 -27.32c-25.96,-68.76 -55.9,-139.07 -89.93,-210.49 -33.04,-69.33 -68.8,-137.28 -107.24,-203.2 -83.11,-142.49 -175.03,-271.23 -272.16,-384.3 -99.62,-115.96 -204.83,-215.36 -311.66,-296.06l-23.16 -17.5 -10.15 -28.2c-61.62,-171.31 -109.35,-351.59 -141.22,-538.42 -31.16,-182.61 -47.62,-371.82 -47.62,-565.43 0,-209.59 19.36,-414.53 55.91,-611.9 35.76,-193.12 87.81,-377.47 154.11,-550.44 -4.15,-19.6 -8.91,-41.16 -14.37,-64.98 -7.12,-31.1 -14.64,-61.84 -22.61,-92.03 -23.31,-88.34 -48.57,-167.85 -74.84,-237.42 -26.68,-70.66 -54.15,-130.49 -81.39,-178.31l-8.72 -15.29 -2.9 -16.86c-7.82,-45.4 -20.05,-96.74 -32.62,-149.46 -41.45,-173.95 -86.19,-361.72 -27.96,-560.99 100.03,-342.42 185.3,-687.57 254.46,-967.5 90.93,-368.05 155.55,-629.63 221.77,-676.62zm83.3 271.12c-25.66,99.4 -65.22,259.52 -112.95,452.76 -69,279.31 -154.09,623.72 -256.79,975.25 -43.3,148.19 -4.69,310.21 31.07,460.28 11.6,48.69 22.93,96.24 31.96,145.21 29.39,53.72 58.34,117.67 85.92,190.7 28.61,75.76 55.97,161.79 81.03,256.78 8.64,32.73 16.67,65.51 24.16,98.23 6.39,27.89 13.45,61.23 21.01,98.75l5.82 28.86 -10.46 26.52c-67.22,170.33 -119.49,351.65 -154.57,541.07 -34.01,183.69 -52.03,376.62 -52.03,576.26 0,183.37 15.39,361.39 44.52,532.12 28.49,167.02 69.72,326.78 122.15,477.48 109.35,85.35 216.91,188.45 319.11,307.41 104.71,121.89 203.71,260.5 293.08,413.74 42.51,72.9 80.81,145.43 114.98,217.15 30.89,64.83 59.36,131.01 85.44,198.07 127.69,89.85 264.74,160.71 408.88,209.53 146.62,49.66 300.74,76.13 459.95,76.13 151.03,0 296.99,-23.55 435.9,-67.91 134.46,-42.94 263.67,-105.71 385.75,-185.81 25.86,-69.97 53.69,-140.49 85.08,-209.67 37.07,-81.73 79.45,-162.88 129.88,-241.35 101.11,-157.29 215.23,-312.06 336.75,-449.72 105.45,-119.45 216.42,-225.68 329.33,-309.24 67.96,-114.97 107.45,-258.77 128.7,-416.92 23.1,-171.87 24.52,-359.96 17.09,-547.14 -7.75,-194.85 -25.21,-384.81 -56.26,-567.46 -30.63,-180.17 -74.52,-352.36 -135.46,-513.95l-8.76 -23.22 3.34 -24.81c5.82,-43.36 12.11,-85.26 18.9,-125.3 7,-41.27 14.89,-82.98 23.75,-125.05 21.93,-104.14 46.64,-196.88 73.04,-276.66 25.41,-76.82 53.19,-144.06 82.27,-200.19 5.93,-46.5 13.95,-92.25 22.15,-139.03 25.74,-146.85 53.44,-304.86 6.44,-447.75 -88.72,-269.7 -76.53,-366.87 -91.28,-362.01 -21.21,6.98 9.18,55.66 -2.49,116.33 -17.96,93.35 -35.41,184.14 -86.24,226.66 -97.88,81.93 -206.52,-11.18 -332.66,-119.29 -88.91,-76.2 -191.55,-164.16 -242.4,-162.86 -26.88,0.69 -44.32,71.53 -38.78,288.22 1.11,43.32 2.96,88.77 5.49,136.11 2.24,41.71 5.4,87.42 9.41,136.66l18.25 224.24 -177.83 -138.65c-145.18,-113.2 -331.64,-59.94 -528.8,-3.61 -135.15,38.61 -274.55,78.44 -422.22,78.44 -147.54,0 -285.63,-37.96 -418.43,-74.48 -196.76,-54.09 -379.72,-104.38 -530,16.29l-168.98 135.71 8.25 -216.28c1.97,-51.75 3.13,-102.99 3.42,-153.54 0.3,-50.81 -0.23,-102.91 -1.59,-156.22 -19.42,-761.08 -146.13,-989.43 -423.31,-1382.86z"/>
    <path id="path2987_0" class="fil2" d="M1643.12 736.75c-56.88,-80.15 -207.42,747.42 -452.95,1587.9 -67.51,231.06 28.47,464.16 63.29,666.3 58.51,102.67 116.64,252.56 165.92,439.34 16.61,62.94 31.08,127.03 44.01,191.17 -136.51,345.92 -213.56,737.9 -213.56,1153.36 0,382.71 65.67,745.33 182.65,1070.54 220.35,166.47 434.18,408.72 609.77,709.8 82.17,140.88 150.05,285.11 204.14,428.4 281.18,204.93 605.4,322.05 950.71,322.05 326.09,0 633.34,-104.35 903.39,-288.52 55.95,-154.31 121.44,-314.03 216.49,-461.93 188.14,-292.7 420.13,-573.95 657.07,-744.31 164.16,-261.31 185.56,-651.62 170.29,-1036.03 -15.87,-398.86 -71.28,-776.63 -197.93,-1112.4 10.97,-81.57 24.58,-163.16 41.49,-243.38 42.52,-202.05 97.23,-362.3 154.63,-467.4 22.66,-197.68 99.25,-426 26.57,-646.96 -290.05,-881.74 -253.2,-135 -337.64,-64.34 -106.77,89.37 -671.32,-787.11 -649.09,84.31 2.44,95.06 7.56,187.91 14.91,278.18 -292.34,-227.93 -646.14,53.52 -1011.82,53.52 -374.87,0 -713.28,-274.72 -1010.39,-36.11 3.89,-102.07 4.59,-207.54 1.82,-315.56 -22.24,-871.44 -180.05,-1069.56 -533.76,-1567.93z"/>
    <path class="fil3" d="M1571.51 653.03c58.53,-41.52 109.31,-34.01 152.18,26.4l28.92 40.71c345.43,486.06 500.63,704.42 523.04,1582.22 1.27,49.46 1.81,98.89 1.65,148.16 175.33,-60.72 353.45,-11.78 541.62,39.95 118.99,32.72 242.71,66.73 366.53,66.73 120.57,0 246.2,-35.89 367.99,-70.69 184.77,-52.78 362.01,-103.41 533.98,-51.55 -1.57,-34.23 -2.86,-70.21 -3.83,-107.98 -9.32,-365.51 89.37,-486.77 231.67,-490.4 126.7,-3.24 260.09,111.08 375.64,210.12 57.79,49.52 46.49,143.29 77.03,117.74 3.21,-2.68 7.66,-53.86 18.85,-112.01 22.5,-116.99 45.73,-237.79 135.73,-267.39 95.35,-31.36 204.67,75.51 340.7,489.06 62.44,189.84 30.36,372.9 0.53,543.03 -8.96,51.11 -17.7,100.94 -22.84,145.75l-2.14 18.67 -9.48 17.35c-25.93,47.49 -51.95,109.77 -76.94,185.33 -24.87,75.16 -47.77,160.7 -67.62,254.96 -8.04,38.14 -15.41,77.34 -22.19,117.31 -5.51,32.52 -10.41,64.08 -14.76,94.73 61.13,167.21 105.52,343.79 136.75,527.47 32.29,189.9 50.47,388.25 58.58,592.26 7.84,197.22 6.2,396.49 -18.63,581.21 -25.71,191.28 -76.36,367.47 -166.76,511.37l-10.13 16.12 -15.82 11.37c-106.12,76.31 -211.96,177.03 -313.35,291.87 -113.48,128.54 -221.43,275.22 -318.16,425.71 -44.62,69.44 -82.52,142.11 -115.94,215.78 -34.53,76.11 -63.93,152.07 -90.86,226.39l-10.93 30.11 -26.26 17.92c-144.52,98.56 -299.9,175.68 -463.61,227.97 -159.52,50.94 -325.5,77.98 -495.55,77.98 -180.53,0 -355.97,-30.24 -523.47,-86.98 -171.25,-58.01 -334.05,-144.17 -485.33,-254.44l-24.15 -17.61 -10.31 -27.32c-25.96,-68.76 -55.9,-139.07 -89.93,-210.49 -33.04,-69.33 -68.8,-137.28 -107.24,-203.2 -83.11,-142.49 -175.03,-271.23 -272.16,-384.3 -99.62,-115.96 -204.83,-215.36 -311.66,-296.06l-23.16 -17.5 -10.15 -28.2c-61.62,-171.31 -109.35,-351.59 -141.22,-538.42 -31.16,-182.61 -47.62,-371.82 -47.62,-565.43 0,-209.59 19.36,-414.53 55.91,-611.9 35.76,-193.12 87.81,-377.47 154.11,-550.44 -4.15,-19.6 -8.91,-41.16 -14.37,-64.98 -7.12,-31.1 -14.64,-61.84 -22.61,-92.03 -23.31,-88.34 -48.57,-167.85 -74.84,-237.42 -26.68,-70.66 -54.15,-130.49 -81.39,-178.31l-8.72 -15.29 -2.9 -16.86c-7.82,-45.4 -20.05,-96.74 -32.62,-149.46 -41.45,-173.95 -86.19,-361.72 -27.96,-560.99 100.03,-342.42 185.3,-687.57 254.46,-967.5 90.93,-368.05 155.55,-629.63 221.77,-676.62zm83.3 271.12c-25.66,99.4 -65.22,259.52 -112.95,452.76 -69,279.31 -154.09,623.72 -256.79,975.25 -43.3,148.19 -4.69,310.21 31.07,460.28 11.6,48.69 22.93,96.24 31.96,145.21 29.39,53.72 58.34,117.67 85.92,190.7 28.61,75.76 55.97,161.79 81.03,256.78 8.64,32.73 16.67,65.51 24.16,98.23 6.39,27.89 13.45,61.23 21.01,98.75l5.82 28.86 -10.46 26.52c-67.22,170.33 -119.49,351.65 -154.57,541.07 -34.01,183.69 -52.03,376.62 -52.03,576.26 0,183.37 15.39,361.39 44.52,532.12 28.49,167.02 69.72,326.78 122.15,477.48 109.35,85.35 216.91,188.45 319.11,307.41 104.71,121.89 203.71,260.5 293.08,413.74 42.51,72.9 80.81,145.43 114.98,217.15 30.89,64.83 59.36,131.01 85.44,198.07 127.69,89.85 264.74,160.71 408.88,209.53 146.62,49.66 300.74,76.13 459.95,76.13 151.03,0 296.99,-23.55 435.9,-67.91 134.46,-42.94 263.67,-105.71 385.75,-185.81 25.86,-69.97 53.69,-140.49 85.08,-209.67 37.07,-81.73 79.45,-162.88 129.88,-241.35 101.11,-157.29 215.23,-312.06 336.75,-449.72 105.45,-119.45 216.42,-225.68 329.33,-309.24 67.96,-114.97 107.45,-258.77 128.7,-416.92 23.1,-171.87 24.52,-359.96 17.09,-547.14 -7.75,-194.85 -25.21,-384.81 -56.26,-567.46 -30.63,-180.17 -74.52,-352.36 -135.46,-513.95l-8.76 -23.22 3.34 -24.81c5.82,-43.36 12.11,-85.26 18.9,-125.3 7,-41.27 14.89,-82.98 23.75,-125.05 21.93,-104.14 46.64,-196.88 73.04,-276.66 25.41,-76.82 53.19,-144.06 82.27,-200.19 5.93,-46.5 13.95,-92.25 22.15,-139.03 25.74,-146.85 53.44,-304.86 6.44,-447.75 -88.72,-269.7 -76.53,-366.87 -91.28,-362.01 -21.21,6.98 9.18,55.66 -2.49,116.33 -17.96,93.35 -35.41,184.14 -86.24,226.66 -97.88,81.93 -206.52,-11.18 -332.66,-119.29 -88.91,-76.2 -191.55,-164.16 -242.4,-162.86 -26.88,0.69 -44.32,71.53 -38.78,288.22 1.11,43.32 2.96,88.77 5.49,136.11 2.24,41.71 5.4,87.42 9.41,136.66l18.25 224.24 -177.83 -138.65c-145.18,-113.2 -331.64,-59.94 -528.8,-3.61 -135.15,38.61 -274.55,78.44 -422.22,78.44 -147.54,0 -285.63,-37.96 -418.43,-74.48 -196.76,-54.09 -379.72,-104.38 -530,16.29l-168.98 135.71 8.25 -216.28c1.97,-51.75 3.13,-102.99 3.42,-153.54 0.3,-50.81 -0.23,-102.91 -1.59,-156.22 -19.42,-761.08 -146.13,-989.43 -423.31,-1382.86z"/>
    <path class="fil4" d="M2111.14 3197.38c-346.97,61.91 -551.8,540.52 -457.51,1069.01 88.46,495.79 408.76,859.33 734.52,851.32 89.14,-176.38 253.33,-306.69 449.75,-345.86 89.69,-195.95 121.04,-456.11 72.23,-729.65 -94.29,-528.49 -452.02,-906.73 -798.99,-844.81z"/>
    <path class="fil3" d="M2111.34 3198.52c-173.06,30.88 -310.71,165.75 -393.35,358.85 -82.7,193.25 -110.3,444.8 -63.19,708.82 43.97,246.46 145.27,460.2 276.05,611.77 131.79,152.76 293.51,242.34 456.59,238.59 45.04,-88.89 109.12,-166.08 186.77,-225.79 76.27,-58.65 165.62,-100.45 262.89,-119.94 45.5,-99.61 75.94,-215.81 88.42,-341.92 12.04,-121.62 7.38,-252.45 -16.53,-386.5 -47.12,-264.01 -160,-490.48 -304.44,-643.21 -144.31,-152.6 -320.12,-231.54 -493.2,-200.66zm-395.5 357.93c82.95,-193.81 221.21,-329.2 395.11,-360.23 173.89,-31.02 350.43,48.2 495.29,201.36 144.74,153.04 257.86,379.94 305.05,644.41 23.95,134.26 28.62,265.3 16.56,387.14 -12.53,126.58 -43.12,243.23 -88.88,343.2l-0.25 0.54 -0.58 0.12c-97.14,19.37 -186.36,61.07 -262.49,119.62 -77.56,59.64 -141.54,136.77 -186.43,225.62l-0.32 0.62 -0.7 0.02c-164.05,4.03 -326.68,-85.9 -459.1,-239.39 -131.05,-151.88 -232.55,-366.01 -276.6,-612.89 -47.19,-264.47 -19.52,-516.48 63.35,-710.14z"/>
    <path id="path3785" class="fil5" d="M2568.23 4347.77c0,81.14 -74.27,146.96 -165.88,146.96 -91.6,0 -165.88,-65.82 -165.88,-146.96 0,-81.18 74.28,-146.98 165.88,-146.98 91.61,0 165.88,65.8 165.88,146.98z"/>
    <path class="fil6" d="M2694.72 4347.77c0,78.1 -35,148.15 -91.57,198.27 -52.41,46.43 -123.5,75.16 -200.79,75.16 -77.3,0 -148.37,-28.73 -200.78,-75.16 -56.58,-50.12 -91.58,-120.18 -91.58,-198.27 0,-78.11 34.99,-148.16 91.57,-198.29 52.41,-46.43 123.5,-75.16 200.79,-75.16 77.31,0 148.38,28.73 200.79,75.16 56.58,50.13 91.57,120.18 91.57,198.29zm-258.57 9.54c3.46,-3.07 5.61,-6.49 5.61,-9.54 0,-3.06 -2.14,-6.49 -5.6,-9.56 -7.62,-6.75 -19.5,-10.93 -33.8,-10.93 -14.3,0 -26.18,4.18 -33.8,10.94 -3.46,3.06 -5.6,6.49 -5.6,9.55 0,3.04 2.15,6.46 5.61,9.54 7.62,6.75 19.49,10.93 33.79,10.93 14.3,0 26.17,-4.18 33.79,-10.93z"/>
    <path id="path3785_1" class="fil5" d="M2568.23 4347.77c0,81.14 -74.27,146.96 -165.88,146.96 -91.6,0 -165.88,-65.82 -165.88,-146.96 0,-81.18 74.28,-146.98 165.88,-146.98 91.61,0 165.88,65.8 165.88,146.98z"/>
    <path class="fil6" d="M2569.41 4347.77c0,40.92 -18.73,77.97 -48.99,104.78 -30.23,26.78 -71.97,43.35 -118.07,43.35 -46.09,0 -87.84,-16.57 -118.06,-43.35 -30.27,-26.82 -49,-63.87 -49,-104.78 0,-40.93 18.72,-77.98 48.99,-104.8 30.23,-26.78 71.98,-43.35 118.07,-43.35 46.1,0 87.84,16.57 118.07,43.35 30.27,26.82 48.99,63.87 48.99,104.8zm-50.54 103.04c29.78,-26.38 48.2,-62.81 48.2,-103.04 0,-40.24 -18.41,-76.68 -48.19,-103.06 -29.81,-26.41 -71.01,-42.74 -116.53,-42.74 -45.51,0 -86.71,16.33 -116.53,42.75 -29.78,26.37 -48.19,62.81 -48.19,103.05 0,40.22 18.42,76.66 48.2,103.04 29.81,26.41 71.01,42.74 116.52,42.74 45.51,0 86.71,-16.33 116.52,-42.74z"/>
    <path id="path3785_2" class="fil5" d="M2568.23 4347.77c0,81.14 -74.27,146.96 -165.88,146.96 -91.6,0 -165.88,-65.82 -165.88,-146.96 0,-81.18 74.28,-146.98 165.88,-146.98 91.61,0 165.88,65.8 165.88,146.98z"/>
    <path class="fil6" d="M2694.72 4347.77c0,78.1 -35,148.15 -91.57,198.27 -52.41,46.43 -123.5,75.16 -200.79,75.16 -77.3,0 -148.37,-28.73 -200.78,-75.16 -56.58,-50.12 -91.58,-120.18 -91.58,-198.27 0,-78.11 34.99,-148.16 91.57,-198.29 52.41,-46.43 123.5,-75.16 200.79,-75.16 77.31,0 148.38,28.73 200.79,75.16 56.58,50.13 91.57,120.18 91.57,198.29zm-258.57 9.54c3.46,-3.07 5.61,-6.49 5.61,-9.54 0,-3.06 -2.14,-6.49 -5.6,-9.56 -7.62,-6.75 -19.5,-10.93 -33.8,-10.93 -14.3,0 -26.18,4.18 -33.8,10.94 -3.46,3.06 -5.6,6.49 -5.6,9.55 0,3.04 2.15,6.46 5.61,9.54 7.62,6.75 19.49,10.93 33.79,10.93 14.3,0 26.17,-4.18 33.79,-10.93z"/>
    <path id="path3785_3" class="fil5" d="M2568.23 4347.77c0,81.14 -74.27,146.96 -165.88,146.96 -91.6,0 -165.88,-65.82 -165.88,-146.96 0,-81.18 74.28,-146.98 165.88,-146.98 91.61,0 165.88,65.8 165.88,146.98z"/>
    <path class="fil6" d="M2569.41 4347.77c0,40.92 -18.73,77.97 -48.99,104.78 -30.23,26.78 -71.97,43.35 -118.07,43.35 -46.09,0 -87.84,-16.57 -118.06,-43.35 -30.27,-26.82 -49,-63.87 -49,-104.78 0,-40.93 18.72,-77.98 48.99,-104.8 30.23,-26.78 71.98,-43.35 118.07,-43.35 46.1,0 87.84,16.57 118.07,43.35 30.27,26.82 48.99,63.87 48.99,104.8zm-50.54 103.04c29.78,-26.38 48.2,-62.81 48.2,-103.04 0,-40.24 -18.41,-76.68 -48.19,-103.06 -29.81,-26.41 -71.01,-42.74 -116.53,-42.74 -45.51,0 -86.71,16.33 -116.53,42.75 -29.78,26.37 -48.19,62.81 -48.19,103.05 0,40.22 18.42,76.66 48.2,103.04 29.81,26.41 71.01,42.74 116.52,42.74 45.51,0 86.71,-16.33 116.52,-42.74z"/>
    <path id="path3785_4" class="fil4" d="M4129.92 4347.77c0,81.14 -74.28,146.96 -165.89,146.96 -91.59,0 -165.88,-65.82 -165.88,-146.96 0,-81.18 74.29,-146.98 165.88,-146.98 91.61,0 165.89,65.8 165.89,146.98z"/>
    <path class="fil7" d="M4256.4 4347.77c0,78.1 -35,148.15 -91.57,198.27 -52.41,46.43 -123.49,75.16 -200.79,75.16 -77.29,0 -148.37,-28.73 -200.78,-75.16 -56.58,-50.12 -91.57,-120.18 -91.57,-198.27 0,-78.11 34.99,-148.16 91.56,-198.29 52.42,-46.43 123.5,-75.16 200.79,-75.16 77.31,0 148.38,28.73 200.8,75.16 56.57,50.13 91.56,120.18 91.56,198.29zm-258.56 9.54c3.46,-3.07 5.6,-6.49 5.6,-9.54 0,-3.07 -2.14,-6.49 -5.6,-9.56 -7.62,-6.75 -19.49,-10.93 -33.8,-10.93 -14.3,0 -26.17,4.18 -33.79,10.94 -3.46,3.06 -5.61,6.49 -5.61,9.55 0,3.04 2.15,6.47 5.61,9.54 7.62,6.75 19.5,10.93 33.79,10.93 14.31,0 26.18,-4.18 33.8,-10.93z"/>
    <path id="path3785_5" class="fil4" d="M4129.92 4347.77c0,81.14 -74.28,146.96 -165.89,146.96 -91.59,0 -165.88,-65.82 -165.88,-146.96 0,-81.18 74.29,-146.98 165.88,-146.98 91.61,0 165.89,65.8 165.89,146.98z"/>
    <path class="fil7" d="M4256.4 4347.77c0,78.1 -35,148.15 -91.57,198.27 -52.41,46.43 -123.49,75.16 -200.79,75.16 -77.29,0 -148.37,-28.73 -200.78,-75.16 -56.58,-50.12 -91.57,-120.18 -91.57,-198.27 0,-78.11 34.99,-148.16 91.56,-198.29 52.42,-46.43 123.5,-75.16 200.79,-75.16 77.31,0 148.38,28.73 200.8,75.16 56.57,50.13 91.56,120.18 91.56,198.29zm-258.56 9.54c3.46,-3.07 5.6,-6.49 5.6,-9.54 0,-3.07 -2.14,-6.49 -5.6,-9.56 -7.62,-6.75 -19.49,-10.93 -33.8,-10.93 -14.3,0 -26.17,4.18 -33.79,10.94 -3.46,3.06 -5.61,6.49 -5.61,9.55 0,3.04 2.15,6.47 5.61,9.54 7.62,6.75 19.5,10.93 33.79,10.93 14.31,0 26.18,-4.18 33.8,-10.93z"/>
    <path id="path3785_6" class="fil4" d="M4129.92 4347.77c0,81.14 -74.28,146.96 -165.89,146.96 -91.59,0 -165.88,-65.82 -165.88,-146.96 0,-81.18 74.29,-146.98 165.88,-146.98 91.61,0 165.89,65.8 165.89,146.98z"/>
    <path class="fil3" d="M4131.09 4347.77c0,40.92 -18.73,77.97 -48.99,104.78 -30.23,26.78 -71.97,43.35 -118.07,43.35 -46.09,0 -87.83,-16.57 -118.06,-43.35 -30.27,-26.82 -48.99,-63.86 -48.99,-104.78 0,-40.93 18.72,-77.98 48.98,-104.8 30.23,-26.78 71.98,-43.35 118.07,-43.35 46.1,0 87.85,16.56 118.07,43.35 30.27,26.82 48.99,63.87 48.99,104.8zm-50.53 103.04c29.78,-26.38 48.19,-62.81 48.19,-103.04 0,-40.24 -18.41,-76.68 -48.19,-103.06 -29.8,-26.41 -71.01,-42.74 -116.53,-42.74 -45.5,0 -86.71,16.33 -116.52,42.75 -29.78,26.37 -48.2,62.81 -48.2,103.05 0,40.22 18.42,76.66 48.2,103.04 29.81,26.41 71.01,42.74 116.52,42.74 45.51,0 86.71,-16.33 116.53,-42.74z"/>
    <path id="path3785_7" class="fil4" d="M4129.92 4347.77c0,81.14 -74.28,146.96 -165.89,146.96 -91.59,0 -165.88,-65.82 -165.88,-146.96 0,-81.18 74.29,-146.98 165.88,-146.98 91.61,0 165.89,65.8 165.89,146.98z"/>
    <path class="fil3" d="M4131.09 4347.77c0,40.92 -18.73,77.97 -48.99,104.78 -30.23,26.78 -71.97,43.35 -118.07,43.35 -46.09,0 -87.83,-16.57 -118.06,-43.35 -30.27,-26.82 -48.99,-63.86 -48.99,-104.78 0,-40.93 18.72,-77.98 48.98,-104.8 30.23,-26.78 71.98,-43.35 118.07,-43.35 46.1,0 87.85,16.56 118.07,43.35 30.27,26.82 48.99,63.87 48.99,104.8zm-50.53 103.04c29.78,-26.38 48.19,-62.81 48.19,-103.04 0,-40.24 -18.41,-76.68 -48.19,-103.06 -29.8,-26.41 -71.01,-42.74 -116.53,-42.74 -45.5,0 -86.71,16.33 -116.52,42.75 -29.78,26.37 -48.2,62.81 -48.2,103.05 0,40.22 18.42,76.66 48.2,103.04 29.81,26.41 71.01,42.74 116.52,42.74 45.51,0 86.71,-16.33 116.53,-42.74z"/>
    <path id="path3763" class="fil4" d="M3160.9 5851.73c-139.66,0 -459.55,273.63 -459.55,460.83 0,51.27 15.81,99.79 43.97,143.34 53.04,22.29 104.5,54.74 146.78,95.09 19.77,18.86 36.1,38.17 49.12,57.36 67.68,27.45 145.73,43.12 228.85,43.12 78.51,0 152.46,-13.97 217.44,-38.64 13.49,-20.65 30.78,-41.51 52.11,-61.84 45.3,-43.23 101.13,-77.37 158.17,-99.69 26.31,-42.34 40.99,-89.3 40.99,-138.74 0,-187.2 -329.07,-460.83 -477.88,-460.83z"/>
    <path id="path3763_8" class="fil4" d="M3160.9 5851.73c-139.66,0 -459.55,273.63 -459.55,460.83 0,51.27 15.81,99.79 43.97,143.34 53.04,22.29 104.5,54.74 146.78,95.09 19.77,18.86 36.1,38.17 49.12,57.36 67.68,27.45 145.73,43.12 228.85,43.12 78.51,0 152.46,-13.97 217.44,-38.64 13.49,-20.65 30.78,-41.51 52.11,-61.84 45.3,-43.23 101.13,-77.37 158.17,-99.69 26.31,-42.34 40.99,-89.3 40.99,-138.74 0,-187.2 -329.07,-460.83 -477.88,-460.83z"/>
    <path class="fil8" d="M2786.88 5592.28c-36.79,23.62 -85.76,12.94 -109.38,-23.86 -23.61,-36.79 -12.93,-85.76 23.87,-109.38 124.53,-79.95 292.95,-142.61 482.22,-142.61 150.87,0 314.86,39.69 480.21,141.99 37.13,22.94 48.64,71.63 25.72,108.77 -22.94,37.13 -71.63,48.64 -108.76,25.72 -137.21,-84.88 -272.76,-117.82 -397.17,-117.82 -155.84,0 -294.37,51.49 -396.71,117.2z"/>
   </g>
   <g>
    <path class="fil7" d="M6397.18 5319.87l0 -3375.72 1212.28 0c434.42,0 765.2,79.13 991.51,238.18 226.31,159.05 339.47,390.12 339.47,692.39 0,174.09 -40.36,323.65 -120.28,447.09 -80.71,123.45 -198.62,214.45 -354.5,273 175.67,45.9 310.98,132.94 405.14,259.55 94.17,127.4 141.65,281.71 141.65,464.5 0,331.56 -104.45,580.03 -314.15,746.99 -209.69,166.18 -519.89,250.84 -930.58,254.01l-1370.54 0zm813.46 -1438.6l0 811.88 533.34 0c147.18,0 259.54,-34.02 338.68,-101.28 79.13,-67.26 117.9,-162.22 117.9,-284.87 0,-282.5 -139.27,-424.14 -419.4,-425.72l-570.53 0zm0 -531.76l424.93 0c177.26,-1.58 303.86,-34.03 379.83,-97.33 75.96,-63.3 113.94,-156.68 113.94,-280.12 0,-142.43 -41.15,-244.52 -123.45,-307.03 -81.51,-62.51 -213.65,-94.17 -396.44,-94.17l-398.82 0 0 778.65zm2875.92 1343.64l1416.44 0 0 626.72 -2230.7 0 0 -3375.72 814.26 0 0 2749zm4164.95 -2749l0 2210.12c0,250.85 -53.02,467.66 -159.84,650.46 -106.83,183.58 -259.54,322.85 -458.95,418.6 -199.41,95.75 -435.23,144.02 -706.64,144.02 -411.48,0 -735.13,-106.83 -971.72,-319.69 -236.61,-213.65 -356.89,-505.64 -361.63,-876.77l0 -2226.74 818.21 0 0 2242.57c9.5,369.54 181.22,553.91 515.15,553.91 167.75,0 295.94,-46.68 382.2,-139.26 86.26,-92.58 129.77,-243.73 129.77,-451.84l0 -2205.38 813.46 0zm319.2 3375.72l0 -3375.72 1087.25 0c298.33,0 566.58,67.26 804.76,202.58 238.18,135.32 424.14,326.01 557.08,572.91 133.73,246.88 201.78,523.06 203.37,829.29l0 155.09c0,308.61 -65.68,586.36 -196.24,830.88 -130.56,245.3 -314.15,436.8 -551.55,575.28 -237.39,138.47 -501.69,208.11 -793.68,209.69l-1111 0zm814.26 -2749l0 2122.29 282.5 0c233.43,0 413.06,-83.09 538.08,-249.26 125.03,-166.18 187.54,-413.06 187.54,-741.46l0 -145.6c0,-326.81 -62.51,-572.11 -187.54,-737.5 -125.02,-165.38 -307.82,-248.47 -547.59,-248.47l-273 0zm2935.27 2749l-811.09 0 0 -3375.72 811.09 0 0 3375.72zm2961.38 -2749l-1012.87 0 0 2749 -814.26 0 0 -2749 -994.67 0 0 -626.72 2821.8 0 0 626.72z"/>
    <path class="fil1" d="M6790.26 6554.4l-332.87 0 0 334.21 -60.22 0 0 -713.59 442.11 0 0 51.19 -381.88 0 0 277 332.87 0 0 51.19zm335.75 283.02l352.45 0 0 51.19 -413.17 0 0 -713.59 60.72 0 0 662.4zm966.38 -149.54l-323.84 0 -73.6 200.73 -63.23 0 270.15 -713.59 57.2 0 270.15 713.59 -62.73 0 -74.1 -200.73zm-305.27 -51.19l286.2 0 -143.02 -388.25 -143.18 388.25zm1071.26 -410.49l-244.55 0 0 662.4 -60.39 0 0 -662.4 -244.04 0 0 -51.19 548.98 0 0 51.19zm273.54 372.35l-234.69 0 0 -49.18 234.69 0 0 49.18zm615.28 -44.16l-332.87 0 0 334.21 -60.22 0 0 -713.59 442.11 0 0 51.19 -381.88 0 0 277 332.87 0 0 51.19zm348.64 334.21l-60.39 0 0 -713.59 60.39 0 0 713.59zm357.84 -51.19l352.45 0 0 51.19 -413.17 0 0 -713.59 60.72 0 0 662.4zm965.72 -291.05l-333.87 0 0 291.05 383.72 0 0 51.19 -443.95 0 0 -713.59 441.6 0 0 51.19 -381.38 0 0 268.98 333.87 0 0 51.19zm1029.45 119.76c-8.2,75.1 -34.96,132.65 -80.62,172.62 -45.5,39.98 -106.22,59.89 -182,59.89 -52.86,0 -99.69,-13.21 -140.34,-39.64 -40.81,-26.6 -72.26,-64.06 -94.33,-112.58 -22.25,-48.67 -33.63,-104.05 -33.79,-166.6l0 -92.66c0,-63.4 11.04,-119.61 33.29,-168.61 22.24,-49.18 54.03,-86.98 95.68,-113.58 41.81,-26.6 89.65,-39.98 143.86,-39.98 76.44,0 136.83,20.58 181.16,61.9 44.16,41.15 69.91,98.19 77.11,171.12l-60.72 0c-15.06,-121.28 -80.79,-181.83 -197.55,-181.83 -64.57,0 -116.09,24.25 -154.57,72.6 -38.3,48.35 -57.54,115.25 -57.54,200.56l0 87.32c0,82.47 18.74,148.2 56.04,197.22 37.48,49.01 87.99,73.6 151.72,73.6 63.06,0 110.57,-15.06 142.52,-45.34 32.11,-30.27 51.85,-75.61 59.38,-135.99l60.72 0zm330.25 -491.11l263.12 629.78 264.13 -629.78 80.29 0 0 713.59 -60.21 0 0 -310.79 4.85 -318.49 -265.63 629.28 -46.5 0 -264.62 -626.78 4.85 314.14 0 312.63 -60.22 0 0 -713.59 79.96 0zm1295.57 538.11c0,-39.48 -13.88,-70.76 -41.64,-93.84 -27.78,-23.08 -78.63,-44.82 -152.39,-65.74 -73.77,-20.74 -127.79,-43.32 -161.75,-67.91 -48.34,-34.63 -72.43,-80.13 -72.43,-136.33 0,-54.53 22.42,-98.86 67.24,-133.15 45,-34.12 102.37,-51.19 172.3,-51.19 47.34,0 89.82,9.21 127.3,27.43 37.3,18.4 66.23,43.83 86.98,76.62 20.57,32.62 30.78,69.08 30.78,109.23l-60.72 0c0,-48.68 -16.73,-87.99 -50.02,-117.6 -33.28,-29.61 -78.11,-44.49 -134.32,-44.49 -54.53,0 -98.03,12.21 -130.31,36.47 -32.28,24.42 -48.51,56.2 -48.51,95.34 0,36.3 14.56,65.91 43.66,88.82 29.1,22.92 75.61,42.99 139.67,60.55 63.9,17.4 112.41,35.64 145.53,54.36 32.95,18.91 57.71,41.32 74.44,67.58 16.73,26.1 24.92,57.05 24.92,92.84 0,56.2 -22.42,101.37 -67.25,135.49 -44.99,33.95 -104.2,51.02 -177.64,51.02 -50.34,0 -96.51,-9.04 -138.5,-26.93 -41.98,-18.07 -73.77,-43.16 -95.51,-75.61 -21.75,-32.28 -32.62,-69.42 -32.62,-111.23l60.21 0c0,50.18 18.91,89.99 56.37,118.92 37.63,29.11 87.65,43.66 150.04,43.66 55.53,0 100.03,-12.21 133.65,-36.8 33.79,-24.42 50.51,-57.04 50.51,-97.52z"/>
   </g>
  </g>
 </g>
</svg>
