<?xml version="1.0" encoding="UTF-8"?>
<!DOCTYPE svg PUBLIC "-//W3C//DTD SVG 1.1//EN" "http://www.w3.org/Graphics/SVG/1.1/DTD/svg11.dtd">
<!-- Creator: CorelDRAW 2019 (64-Bit) -->
<svg xmlns="http://www.w3.org/2000/svg" xml:space="preserve" width="235.656mm" height="81.1389mm" version="1.1" style="shape-rendering:geometricPrecision; text-rendering:geometricPrecision; image-rendering:optimizeQuality; fill-rule:evenodd; clip-rule:evenodd"
viewBox="0 0 23336.72 8035.1"
 xmlns:xlink="http://www.w3.org/1999/xlink">
 <defs>
  <style type="text/css">
   <![CDATA[
    .fil4 {fill:black}
    .fil5 {fill:#FEFEFE}
    .fil0 {fill:#FFD107}
    .fil2 {fill:white}
    .fil7 {fill:black;fill-rule:nonzero}
    .fil3 {fill:black;fill-rule:nonzero}
    .fil1 {fill:#2B2A29;fill-rule:nonzero}
    .fil8 {fill:#EBECEC;fill-rule:nonzero}
    .fil6 {fill:#FEFEFE;fill-rule:nonzero}
   ]]>
  </style>
 </defs>
 <g id="Layer_x0020_1">
  <metadata id="CorelCorpID_0Corel-Layer"/>
  <polygon class="fil0" points="-0,0 23336.72,0 23336.72,8035.1 -0,8035.1 "/>
  <g id="_2380023403792">
   <g>
    <path class="fil1" d="M2061.27 653.29c58.56,-41.54 109.36,-34.03 152.25,26.41l28.94 40.73c345.58,486.26 500.84,704.72 523.26,1582.89 1.27,49.48 1.81,98.93 1.65,148.23 175.4,-60.74 353.6,-11.78 541.85,39.97 119.04,32.73 242.81,66.76 366.68,66.76 120.62,0 246.3,-35.91 368.15,-70.72 184.85,-52.8 362.17,-103.46 534.21,-51.57 -1.57,-34.24 -2.86,-70.24 -3.83,-108.03 -9.33,-365.66 89.4,-486.97 231.77,-490.61 126.76,-3.24 260.2,111.13 375.8,210.21 57.81,49.54 46.51,143.35 77.06,117.79 3.21,-2.68 7.66,-53.88 18.86,-112.06 22.51,-117.04 45.75,-237.89 135.79,-267.51 95.39,-31.37 204.75,75.54 340.85,489.27 62.47,189.92 30.37,373.06 0.53,543.26 -8.96,51.13 -17.71,100.98 -22.85,145.81l-2.14 18.68 -9.49 17.36c-25.95,47.51 -51.97,109.81 -76.98,185.41 -24.88,75.19 -47.79,160.76 -67.65,255.07 -8.04,38.16 -15.42,77.37 -22.2,117.36 -5.52,32.53 -10.42,64.11 -14.77,94.77 61.16,167.28 105.56,343.94 136.81,527.7 32.3,189.98 50.49,388.41 58.61,592.51 7.84,197.31 6.2,396.66 -18.64,581.46 -25.72,191.36 -76.39,367.63 -166.82,511.58l-10.14 16.13 -15.82 11.38c-106.17,76.34 -212.05,177.1 -313.49,292 -113.53,128.6 -221.53,275.34 -318.3,425.89 -44.64,69.47 -82.55,142.17 -115.99,215.87 -34.54,76.14 -63.94,152.14 -90.9,226.49l-10.93 30.12 -26.27 17.92c-144.58,98.6 -300.03,175.76 -463.81,228.06 -159.59,50.96 -325.64,78.01 -495.76,78.01 -180.62,0 -356.12,-30.25 -523.69,-87.02 -171.32,-58.03 -334.19,-144.24 -485.54,-254.54l-24.16 -17.62 -10.32 -27.33c-25.98,-68.79 -55.92,-139.13 -89.97,-210.58 -33.06,-69.36 -68.83,-137.33 -107.29,-203.29 -83.14,-142.55 -175.1,-271.35 -272.28,-384.46 -99.66,-116.01 -204.92,-215.45 -311.79,-296.19l-23.17 -17.51 -10.15 -28.21c-61.65,-171.38 -109.4,-351.74 -141.28,-538.65 -31.17,-182.69 -47.64,-371.98 -47.64,-565.67 0,-209.68 19.37,-414.7 55.93,-612.16 35.78,-193.21 87.85,-377.63 154.18,-550.67 -4.15,-19.61 -8.91,-41.18 -14.38,-65.01 -7.12,-31.11 -14.65,-61.86 -22.62,-92.07 -23.32,-88.37 -48.59,-167.92 -74.88,-237.52 -26.69,-70.69 -54.17,-130.55 -81.42,-178.38l-8.72 -15.3 -2.9 -16.86c-7.82,-45.41 -20.06,-96.78 -32.63,-149.52 -41.46,-174.02 -86.22,-361.87 -27.98,-561.23 100.07,-342.56 185.38,-687.86 254.56,-967.91 90.97,-368.21 155.61,-629.89 221.86,-676.91zm83.33 271.23c-25.67,99.44 -65.25,259.63 -113,452.95 -69.03,279.43 -154.16,623.98 -256.9,975.66 -43.32,148.26 -4.69,310.34 31.09,460.47 11.61,48.71 22.94,96.28 31.98,145.28 29.4,53.74 58.37,117.72 85.96,190.78 28.62,75.8 55.99,161.86 81.07,256.89 8.65,32.75 16.68,65.54 24.17,98.28 6.4,27.91 13.46,61.26 21.02,98.79l5.82 28.88 -10.47 26.53c-67.25,170.4 -119.54,351.8 -154.63,541.3 -34.03,183.77 -52.05,376.78 -52.05,576.51 0,183.45 15.4,361.54 44.54,532.35 28.5,167.09 69.75,326.91 122.2,477.69 109.4,85.38 217,188.53 319.25,307.54 104.75,121.94 203.79,260.61 293.2,413.91 42.53,72.93 80.85,145.49 115.03,217.24 30.91,64.85 59.39,131.06 85.47,198.16 127.75,89.89 264.85,160.77 409.05,209.61 146.67,49.68 300.87,76.16 460.15,76.16 151.1,0 297.12,-23.56 436.08,-67.94 134.52,-42.96 263.78,-105.75 385.92,-185.89 25.87,-70 53.71,-140.55 85.12,-209.76 37.09,-81.77 79.48,-162.95 129.94,-241.45 101.15,-157.36 215.32,-312.19 336.9,-449.91 105.5,-119.5 216.52,-225.78 329.47,-309.37 67.99,-115.02 107.5,-258.88 128.76,-417.1 23.11,-171.94 24.53,-360.11 17.09,-547.37 -7.75,-194.93 -25.22,-384.97 -56.29,-567.7 -30.64,-180.24 -74.55,-352.51 -135.52,-514.17l-8.76 -23.23 3.34 -24.82c5.82,-43.37 12.11,-85.29 18.9,-125.35 7,-41.29 14.89,-83.02 23.76,-125.1 21.93,-104.19 46.66,-196.96 73.07,-276.78 25.42,-76.86 53.21,-144.12 82.3,-200.28 5.93,-46.52 13.95,-92.29 22.16,-139.09 25.75,-146.91 53.47,-304.99 6.45,-447.94 -88.76,-269.81 -76.56,-367.02 -91.31,-362.17 -21.22,6.98 9.18,55.68 -2.5,116.38 -17.96,93.39 -35.42,184.21 -86.27,226.76 -97.92,81.97 -206.6,-11.18 -332.8,-119.34 -88.95,-76.23 -191.63,-164.23 -242.5,-162.93 -26.9,0.69 -44.34,71.56 -38.8,288.34 1.11,43.34 2.96,88.81 5.5,136.16 2.24,41.73 5.41,87.45 9.42,136.72l18.26 224.34 -177.91 -138.71c-145.25,-113.25 -331.78,-59.96 -529.02,-3.61 -135.2,38.63 -274.67,78.47 -422.4,78.47 -147.6,0 -285.75,-37.98 -418.61,-74.51 -196.84,-54.11 -379.88,-104.43 -530.22,16.3l-169.05 135.77 8.25 -216.37c1.97,-51.77 3.13,-103.03 3.42,-153.6 0.3,-50.83 -0.23,-102.95 -1.59,-156.29 -19.43,-761.4 -146.2,-989.85 -423.49,-1383.44z"/>
    <path class="fil1" d="M2061.27 653.29c58.56,-41.54 109.36,-34.03 152.25,26.41l28.94 40.73c345.58,486.26 500.84,704.72 523.26,1582.89 1.27,49.48 1.81,98.93 1.65,148.23 175.4,-60.74 353.6,-11.78 541.85,39.97 119.04,32.73 242.81,66.76 366.68,66.76 120.62,0 246.3,-35.91 368.15,-70.72 184.85,-52.8 362.17,-103.46 534.21,-51.57 -1.57,-34.24 -2.86,-70.24 -3.83,-108.03 -9.33,-365.66 89.4,-486.97 231.77,-490.61 126.76,-3.24 260.2,111.13 375.8,210.21 57.81,49.54 46.51,143.35 77.06,117.79 3.21,-2.68 7.66,-53.88 18.86,-112.06 22.51,-117.04 45.75,-237.89 135.79,-267.51 95.39,-31.37 204.75,75.54 340.85,489.27 62.47,189.92 30.37,373.06 0.53,543.26 -8.96,51.13 -17.71,100.98 -22.85,145.81l-2.14 18.68 -9.49 17.36c-25.95,47.51 -51.97,109.81 -76.98,185.41 -24.88,75.19 -47.79,160.76 -67.65,255.07 -8.04,38.16 -15.42,77.37 -22.2,117.36 -5.52,32.53 -10.42,64.11 -14.77,94.77 61.16,167.28 105.56,343.94 136.81,527.7 32.3,189.98 50.49,388.41 58.61,592.51 7.84,197.31 6.2,396.66 -18.64,581.46 -25.72,191.36 -76.39,367.63 -166.82,511.58l-10.14 16.13 -15.82 11.38c-106.17,76.34 -212.05,177.1 -313.49,292 -113.53,128.6 -221.53,275.34 -318.3,425.89 -44.64,69.47 -82.55,142.17 -115.99,215.87 -34.54,76.14 -63.94,152.14 -90.9,226.49l-10.93 30.12 -26.27 17.92c-144.58,98.6 -300.03,175.76 -463.81,228.06 -159.59,50.96 -325.64,78.01 -495.76,78.01 -180.62,0 -356.12,-30.25 -523.69,-87.02 -171.32,-58.03 -334.19,-144.24 -485.54,-254.54l-24.16 -17.62 -10.32 -27.33c-25.98,-68.79 -55.92,-139.13 -89.97,-210.58 -33.06,-69.36 -68.83,-137.33 -107.29,-203.29 -83.14,-142.55 -175.1,-271.35 -272.28,-384.46 -99.66,-116.01 -204.92,-215.45 -311.79,-296.19l-23.17 -17.51 -10.15 -28.21c-61.65,-171.38 -109.4,-351.74 -141.28,-538.65 -31.17,-182.69 -47.64,-371.98 -47.64,-565.67 0,-209.68 19.37,-414.7 55.93,-612.16 35.78,-193.21 87.85,-377.63 154.18,-550.67 -4.15,-19.61 -8.91,-41.18 -14.38,-65.01 -7.12,-31.11 -14.65,-61.86 -22.62,-92.07 -23.32,-88.37 -48.59,-167.92 -74.88,-237.52 -26.69,-70.69 -54.17,-130.55 -81.42,-178.38l-8.72 -15.3 -2.9 -16.86c-7.82,-45.41 -20.06,-96.78 -32.63,-149.52 -41.46,-174.02 -86.22,-361.87 -27.98,-561.23 100.07,-342.56 185.38,-687.86 254.56,-967.91 90.97,-368.21 155.61,-629.89 221.86,-676.91zm83.33 271.23c-25.67,99.44 -65.25,259.63 -113,452.95 -69.03,279.43 -154.16,623.98 -256.9,975.66 -43.32,148.26 -4.69,310.34 31.09,460.47 11.61,48.71 22.94,96.28 31.98,145.28 29.4,53.74 58.37,117.72 85.96,190.78 28.62,75.8 55.99,161.86 81.07,256.89 8.65,32.75 16.68,65.54 24.17,98.28 6.4,27.91 13.46,61.26 21.02,98.79l5.82 28.88 -10.47 26.53c-67.25,170.4 -119.54,351.8 -154.63,541.3 -34.03,183.77 -52.05,376.78 -52.05,576.51 0,183.45 15.4,361.54 44.54,532.35 28.5,167.09 69.75,326.91 122.2,477.69 109.4,85.38 217,188.53 319.25,307.54 104.75,121.94 203.79,260.61 293.2,413.91 42.53,72.93 80.85,145.49 115.03,217.24 30.91,64.85 59.39,131.06 85.47,198.16 127.75,89.89 264.85,160.77 409.05,209.61 146.67,49.68 300.87,76.16 460.15,76.16 151.1,0 297.12,-23.56 436.08,-67.94 134.52,-42.96 263.78,-105.75 385.92,-185.89 25.87,-70 53.71,-140.55 85.12,-209.76 37.09,-81.77 79.48,-162.95 129.94,-241.45 101.15,-157.36 215.32,-312.19 336.9,-449.91 105.5,-119.5 216.52,-225.78 329.47,-309.37 67.99,-115.02 107.5,-258.88 128.76,-417.1 23.11,-171.94 24.53,-360.11 17.09,-547.37 -7.75,-194.93 -25.22,-384.97 -56.29,-567.7 -30.64,-180.24 -74.55,-352.51 -135.52,-514.17l-8.76 -23.23 3.34 -24.82c5.82,-43.37 12.11,-85.29 18.9,-125.35 7,-41.29 14.89,-83.02 23.76,-125.1 21.93,-104.19 46.66,-196.96 73.07,-276.78 25.42,-76.86 53.21,-144.12 82.3,-200.28 5.93,-46.52 13.95,-92.29 22.16,-139.09 25.75,-146.91 53.47,-304.99 6.45,-447.94 -88.76,-269.81 -76.56,-367.02 -91.31,-362.17 -21.22,6.98 9.18,55.68 -2.5,116.38 -17.96,93.39 -35.42,184.21 -86.27,226.76 -97.92,81.97 -206.6,-11.18 -332.8,-119.34 -88.95,-76.23 -191.63,-164.23 -242.5,-162.93 -26.9,0.69 -44.34,71.56 -38.8,288.34 1.11,43.34 2.96,88.81 5.5,136.16 2.24,41.73 5.41,87.45 9.42,136.72l18.26 224.34 -177.91 -138.71c-145.25,-113.25 -331.78,-59.96 -529.02,-3.61 -135.2,38.63 -274.67,78.47 -422.4,78.47 -147.6,0 -285.75,-37.98 -418.61,-74.51 -196.84,-54.11 -379.88,-104.43 -530.22,16.3l-169.05 135.77 8.25 -216.37c1.97,-51.77 3.13,-103.03 3.42,-153.6 0.3,-50.83 -0.23,-102.95 -1.59,-156.29 -19.43,-761.4 -146.2,-989.85 -423.49,-1383.44z"/>
    <path id="path2987" class="fil2" d="M2132.91 737.05c-56.9,-80.18 -207.51,747.74 -453.15,1588.57 -67.54,231.15 28.48,464.36 63.32,666.58 58.54,102.71 116.69,252.66 165.99,439.53 16.62,62.96 31.1,127.08 44.03,191.25 -136.57,346.07 -213.65,738.21 -213.65,1153.85 0,382.88 65.7,745.65 182.73,1071 220.45,166.54 434.36,408.89 610.03,710.1 82.2,140.94 150.12,285.23 204.23,428.58 281.3,205.02 605.66,322.19 951.11,322.19 326.23,0 633.61,-104.4 903.78,-288.64 55.97,-154.38 121.49,-314.16 216.59,-462.13 188.22,-292.83 420.31,-574.19 657.35,-744.63 164.23,-261.42 185.64,-651.9 170.36,-1036.47 -15.87,-399.03 -71.31,-776.96 -198.02,-1112.88 10.97,-81.6 24.59,-163.23 41.5,-243.48 42.54,-202.14 97.28,-362.46 154.69,-467.59 22.67,-197.76 99.3,-426.18 26.58,-647.23 -290.17,-882.11 -253.31,-135.06 -337.79,-64.37 -106.81,89.4 -671.6,-787.45 -649.36,84.34 2.44,95.1 7.57,187.99 14.91,278.3 -292.46,-228.02 -646.41,53.54 -1012.25,53.54 -375.03,0 -713.58,-274.84 -1010.82,-36.13 3.89,-102.11 4.59,-207.62 1.82,-315.69 -22.25,-871.81 -180.12,-1070.02 -533.98,-1568.6z"/>
    <path class="fil3" d="M2061.27 653.29c58.56,-41.54 109.36,-34.03 152.25,26.41l28.94 40.73c345.58,486.26 500.84,704.72 523.26,1582.89 1.27,49.48 1.81,98.93 1.65,148.23 175.4,-60.74 353.6,-11.78 541.85,39.97 119.04,32.73 242.81,66.76 366.68,66.76 120.62,0 246.3,-35.91 368.15,-70.72 184.85,-52.8 362.17,-103.46 534.21,-51.57 -1.57,-34.24 -2.86,-70.24 -3.83,-108.03 -9.33,-365.66 89.4,-486.97 231.77,-490.61 126.76,-3.24 260.2,111.13 375.8,210.21 57.81,49.54 46.51,143.35 77.06,117.79 3.21,-2.68 7.66,-53.88 18.86,-112.06 22.51,-117.04 45.75,-237.89 135.79,-267.51 95.39,-31.37 204.75,75.54 340.85,489.27 62.47,189.92 30.37,373.06 0.53,543.26 -8.96,51.13 -17.71,100.98 -22.85,145.81l-2.14 18.68 -9.49 17.36c-25.95,47.51 -51.97,109.81 -76.98,185.41 -24.88,75.19 -47.79,160.76 -67.65,255.07 -8.04,38.16 -15.42,77.37 -22.2,117.36 -5.52,32.53 -10.42,64.11 -14.77,94.77 61.16,167.28 105.56,343.94 136.81,527.7 32.3,189.98 50.49,388.41 58.61,592.51 7.84,197.31 6.2,396.66 -18.64,581.46 -25.72,191.36 -76.39,367.63 -166.82,511.58l-10.14 16.13 -15.82 11.38c-106.17,76.34 -212.05,177.1 -313.49,292 -113.53,128.6 -221.53,275.34 -318.3,425.89 -44.64,69.47 -82.55,142.17 -115.99,215.87 -34.54,76.14 -63.94,152.14 -90.9,226.49l-10.93 30.12 -26.27 17.92c-144.58,98.6 -300.03,175.76 -463.81,228.06 -159.59,50.96 -325.64,78.01 -495.76,78.01 -180.61,0 -356.12,-30.25 -523.69,-87.02 -171.32,-58.03 -334.19,-144.24 -485.54,-254.54l-24.16 -17.62 -10.32 -27.33c-25.98,-68.79 -55.92,-139.13 -89.97,-210.58 -33.06,-69.36 -68.83,-137.33 -107.29,-203.29 -83.14,-142.55 -175.1,-271.35 -272.28,-384.46 -99.66,-116.01 -204.92,-215.45 -311.79,-296.19l-23.17 -17.51 -10.15 -28.21c-61.65,-171.38 -109.4,-351.74 -141.28,-538.65 -31.17,-182.69 -47.64,-371.98 -47.64,-565.67 0,-209.68 19.37,-414.7 55.93,-612.16 35.78,-193.21 87.85,-377.63 154.18,-550.67 -4.15,-19.61 -8.91,-41.18 -14.38,-65.01 -7.12,-31.11 -14.65,-61.86 -22.62,-92.07 -23.32,-88.37 -48.59,-167.92 -74.88,-237.52 -26.69,-70.69 -54.17,-130.55 -81.42,-178.38l-8.72 -15.3 -2.9 -16.86c-7.82,-45.41 -20.06,-96.78 -32.63,-149.52 -41.46,-174.02 -86.22,-361.87 -27.98,-561.23 100.07,-342.56 185.38,-687.86 254.56,-967.91 90.97,-368.21 155.61,-629.89 221.86,-676.91zm83.33 271.23c-25.67,99.44 -65.25,259.63 -113,452.95 -69.03,279.43 -154.16,623.98 -256.9,975.66 -43.32,148.26 -4.69,310.34 31.09,460.47 11.61,48.71 22.94,96.28 31.98,145.28 29.4,53.74 58.37,117.72 85.96,190.78 28.62,75.8 55.99,161.86 81.07,256.89 8.65,32.75 16.68,65.54 24.17,98.28 6.4,27.91 13.46,61.26 21.02,98.79l5.82 28.88 -10.47 26.53c-67.25,170.4 -119.54,351.8 -154.63,541.3 -34.03,183.77 -52.05,376.78 -52.05,576.51 0,183.45 15.4,361.54 44.54,532.35 28.5,167.09 69.75,326.91 122.2,477.69 109.4,85.38 217,188.53 319.25,307.54 104.75,121.94 203.79,260.61 293.2,413.91 42.53,72.93 80.85,145.49 115.03,217.24 30.91,64.85 59.39,131.06 85.47,198.16 127.75,89.89 264.85,160.77 409.05,209.61 146.68,49.68 300.87,76.16 460.15,76.16 151.1,0 297.12,-23.56 436.08,-67.94 134.52,-42.96 263.78,-105.75 385.92,-185.89 25.87,-70 53.71,-140.55 85.12,-209.76 37.09,-81.77 79.48,-162.95 129.94,-241.45 101.15,-157.36 215.32,-312.19 336.9,-449.91 105.5,-119.5 216.52,-225.78 329.47,-309.37 67.99,-115.02 107.5,-258.88 128.76,-417.1 23.11,-171.94 24.53,-360.11 17.09,-547.37 -7.75,-194.93 -25.22,-384.97 -56.29,-567.7 -30.64,-180.24 -74.55,-352.51 -135.52,-514.17l-8.76 -23.23 3.34 -24.82c5.82,-43.37 12.11,-85.29 18.9,-125.35 7,-41.29 14.89,-83.02 23.76,-125.1 21.93,-104.19 46.66,-196.96 73.07,-276.78 25.42,-76.86 53.21,-144.12 82.3,-200.28 5.93,-46.52 13.95,-92.29 22.16,-139.09 25.75,-146.91 53.47,-304.99 6.45,-447.94 -88.76,-269.81 -76.56,-367.02 -91.31,-362.17 -21.22,6.98 9.18,55.68 -2.5,116.38 -17.96,93.39 -35.42,184.21 -86.27,226.76 -97.92,81.97 -206.6,-11.18 -332.8,-119.34 -88.95,-76.23 -191.63,-164.23 -242.5,-162.93 -26.9,0.69 -44.34,71.56 -38.8,288.34 1.11,43.34 2.96,88.81 5.5,136.16 2.24,41.73 5.41,87.45 9.42,136.72l18.26 224.34 -177.91 -138.71c-145.25,-113.25 -331.78,-59.96 -529.02,-3.61 -135.2,38.63 -274.67,78.47 -422.4,78.47 -147.6,0 -285.75,-37.98 -418.61,-74.51 -196.84,-54.11 -379.88,-104.43 -530.22,16.3l-169.05 135.77 8.25 -216.37c1.97,-51.77 3.13,-103.03 3.42,-153.6 0.3,-50.83 -0.23,-102.95 -1.59,-156.29 -19.43,-761.4 -146.2,-989.85 -423.49,-1383.44z"/>
    <path id="path2987_0" class="fil2" d="M2132.91 737.05c-56.9,-80.18 -207.51,747.74 -453.15,1588.57 -67.54,231.15 28.48,464.36 63.32,666.58 58.54,102.71 116.69,252.66 165.99,439.53 16.62,62.96 31.1,127.08 44.03,191.25 -136.57,346.07 -213.65,738.21 -213.65,1153.85 0,382.88 65.7,745.65 182.73,1071 220.45,166.54 434.36,408.89 610.03,710.1 82.2,140.94 150.12,285.23 204.23,428.58 281.3,205.02 605.66,322.19 951.11,322.19 326.23,0 633.61,-104.4 903.78,-288.64 55.97,-154.38 121.49,-314.16 216.59,-462.13 188.22,-292.83 420.31,-574.19 657.35,-744.63 164.23,-261.42 185.64,-651.9 170.36,-1036.47 -15.87,-399.03 -71.31,-776.96 -198.02,-1112.88 10.97,-81.6 24.59,-163.23 41.5,-243.48 42.54,-202.14 97.28,-362.46 154.69,-467.59 22.67,-197.76 99.3,-426.18 26.58,-647.23 -290.17,-882.11 -253.31,-135.06 -337.79,-64.37 -106.81,89.4 -671.6,-787.45 -649.36,84.34 2.44,95.1 7.57,187.99 14.91,278.3 -292.46,-228.02 -646.41,53.54 -1012.25,53.54 -375.03,0 -713.58,-274.84 -1010.82,-36.13 3.89,-102.11 4.59,-207.62 1.82,-315.69 -22.25,-871.81 -180.12,-1070.02 -533.98,-1568.6z"/>
    <path class="fil3" d="M2061.27 653.29c58.56,-41.54 109.36,-34.03 152.25,26.41l28.94 40.73c345.58,486.26 500.84,704.72 523.26,1582.89 1.27,49.48 1.81,98.93 1.65,148.23 175.4,-60.74 353.6,-11.78 541.85,39.97 119.04,32.73 242.81,66.76 366.68,66.76 120.62,0 246.3,-35.91 368.15,-70.72 184.85,-52.8 362.17,-103.46 534.21,-51.57 -1.57,-34.24 -2.86,-70.24 -3.83,-108.03 -9.33,-365.66 89.4,-486.97 231.77,-490.61 126.76,-3.24 260.2,111.13 375.8,210.21 57.81,49.54 46.51,143.35 77.06,117.79 3.21,-2.68 7.66,-53.88 18.86,-112.06 22.51,-117.04 45.75,-237.89 135.79,-267.51 95.39,-31.37 204.75,75.54 340.85,489.27 62.47,189.92 30.37,373.06 0.53,543.26 -8.96,51.13 -17.71,100.98 -22.85,145.81l-2.14 18.68 -9.49 17.36c-25.95,47.51 -51.97,109.81 -76.98,185.41 -24.88,75.19 -47.79,160.76 -67.65,255.07 -8.04,38.16 -15.42,77.37 -22.2,117.36 -5.52,32.53 -10.42,64.11 -14.77,94.77 61.16,167.28 105.56,343.94 136.81,527.7 32.3,189.98 50.49,388.41 58.61,592.51 7.84,197.31 6.2,396.66 -18.64,581.46 -25.72,191.36 -76.39,367.63 -166.83,511.58l-10.13 16.13 -15.82 11.38c-106.17,76.34 -212.05,177.1 -313.49,292 -113.53,128.6 -221.53,275.34 -318.3,425.89 -44.64,69.47 -82.55,142.17 -115.99,215.87 -34.54,76.14 -63.95,152.14 -90.9,226.49l-10.93 30.12 -26.27 17.92c-144.58,98.6 -300.03,175.76 -463.81,228.06 -159.59,50.96 -325.64,78.01 -495.76,78.01 -180.61,0 -356.12,-30.25 -523.69,-87.02 -171.32,-58.03 -334.19,-144.24 -485.54,-254.54l-24.16 -17.62 -10.32 -27.33c-25.98,-68.79 -55.92,-139.13 -89.97,-210.58 -33.06,-69.36 -68.83,-137.33 -107.29,-203.29 -83.14,-142.55 -175.1,-271.35 -272.28,-384.46 -99.66,-116.01 -204.92,-215.45 -311.79,-296.19l-23.17 -17.51 -10.15 -28.21c-61.65,-171.38 -109.4,-351.74 -141.28,-538.65 -31.17,-182.69 -47.64,-371.98 -47.64,-565.67 0,-209.68 19.37,-414.7 55.93,-612.16 35.78,-193.21 87.85,-377.63 154.18,-550.67 -4.15,-19.61 -8.91,-41.18 -14.38,-65.01 -7.12,-31.11 -14.65,-61.86 -22.62,-92.07 -23.32,-88.37 -48.59,-167.92 -74.88,-237.52 -26.69,-70.69 -54.17,-130.55 -81.42,-178.38l-8.72 -15.3 -2.9 -16.86c-7.82,-45.41 -20.06,-96.78 -32.63,-149.52 -41.46,-174.02 -86.22,-361.87 -27.98,-561.23 100.07,-342.56 185.38,-687.86 254.56,-967.91 90.97,-368.21 155.61,-629.89 221.86,-676.91zm83.33 271.23c-25.67,99.44 -65.25,259.63 -113,452.95 -69.03,279.43 -154.16,623.98 -256.9,975.66 -43.32,148.26 -4.69,310.34 31.09,460.47 11.61,48.71 22.94,96.28 31.98,145.28 29.4,53.74 58.37,117.72 85.96,190.78 28.62,75.8 55.99,161.86 81.07,256.89 8.65,32.75 16.68,65.54 24.17,98.28 6.4,27.91 13.46,61.26 21.02,98.79l5.82 28.88 -10.47 26.53c-67.25,170.4 -119.54,351.8 -154.63,541.3 -34.03,183.77 -52.05,376.78 -52.05,576.51 0,183.45 15.4,361.54 44.54,532.35 28.5,167.09 69.75,326.91 122.2,477.69 109.4,85.38 217,188.53 319.25,307.54 104.75,121.94 203.79,260.61 293.2,413.91 42.53,72.93 80.85,145.49 115.03,217.24 30.91,64.85 59.39,131.06 85.47,198.16 127.75,89.89 264.85,160.77 409.05,209.61 146.68,49.68 300.87,76.16 460.15,76.16 151.1,0 297.12,-23.56 436.08,-67.94 134.52,-42.96 263.78,-105.75 385.92,-185.89 25.87,-70 53.71,-140.55 85.12,-209.76 37.09,-81.77 79.48,-162.95 129.94,-241.45 101.15,-157.36 215.32,-312.19 336.9,-449.91 105.5,-119.5 216.52,-225.78 329.47,-309.37 67.99,-115.02 107.5,-258.88 128.76,-417.1 23.11,-171.94 24.53,-360.11 17.09,-547.37 -7.75,-194.93 -25.22,-384.97 -56.29,-567.7 -30.64,-180.24 -74.55,-352.51 -135.52,-514.17l-8.76 -23.23 3.34 -24.82c5.82,-43.37 12.11,-85.29 18.9,-125.35 7,-41.29 14.89,-83.02 23.76,-125.1 21.93,-104.19 46.66,-196.96 73.07,-276.78 25.42,-76.86 53.21,-144.12 82.3,-200.28 5.93,-46.52 13.95,-92.29 22.16,-139.09 25.75,-146.91 53.47,-304.99 6.45,-447.94 -88.76,-269.81 -76.56,-367.02 -91.31,-362.17 -21.22,6.98 9.18,55.68 -2.5,116.38 -17.96,93.39 -35.42,184.21 -86.27,226.76 -97.92,81.97 -206.6,-11.18 -332.8,-119.34 -88.95,-76.23 -191.63,-164.23 -242.5,-162.93 -26.9,0.69 -44.34,71.56 -38.8,288.34 1.11,43.34 2.96,88.81 5.5,136.16 2.24,41.73 5.41,87.45 9.42,136.72l18.26 224.34 -177.91 -138.71c-145.25,-113.25 -331.78,-59.96 -529.02,-3.61 -135.2,38.63 -274.67,78.47 -422.4,78.47 -147.6,0 -285.75,-37.98 -418.61,-74.51 -196.84,-54.11 -379.88,-104.43 -530.22,16.3l-169.05 135.77 8.25 -216.37c1.97,-51.77 3.13,-103.03 3.42,-153.6 0.3,-50.83 -0.23,-102.95 -1.59,-156.29 -19.43,-761.4 -146.2,-989.85 -423.49,-1383.44z"/>
    <path class="fil4" d="M2601.13 3198.72c-347.12,61.93 -552.04,540.75 -457.7,1069.46 88.5,496 408.93,859.7 734.83,851.68 89.18,-176.46 253.43,-306.82 449.94,-346.01 89.73,-196.04 121.09,-456.31 72.26,-729.96 -94.33,-528.72 -452.22,-907.11 -799.33,-845.17z"/>
    <path class="fil3" d="M2601.33 3199.87c-173.13,30.9 -310.84,165.82 -393.52,359 -82.74,193.33 -110.35,444.99 -63.22,709.12 43.99,246.56 145.33,460.4 276.17,612.03 131.85,152.82 293.63,242.44 456.78,238.69 45.06,-88.93 109.17,-166.15 186.85,-225.89 76.3,-58.67 165.7,-100.49 263,-119.99 45.52,-99.65 75.98,-215.9 88.46,-342.07 12.04,-121.67 7.39,-252.55 -16.54,-386.67 -47.14,-264.12 -160.07,-490.69 -304.57,-643.48 -144.37,-152.66 -320.26,-231.64 -493.41,-200.74zm-395.67 358.08c82.99,-193.89 221.3,-329.34 395.27,-360.39 173.96,-31.04 350.58,48.22 495.5,201.44 144.8,153.11 257.97,380.1 305.18,644.69 23.97,134.31 28.63,265.42 16.57,387.3 -12.54,126.64 -43.14,243.33 -88.92,343.34l-0.25 0.54 -0.58 0.12c-97.18,19.38 -186.44,61.09 -262.6,119.67 -77.59,59.66 -141.6,136.83 -186.51,225.72l-0.32 0.62 -0.7 0.02c-164.12,4.03 -326.82,-85.94 -459.3,-239.49 -131.1,-151.94 -232.65,-366.17 -276.72,-613.15 -47.21,-264.59 -19.53,-516.7 63.38,-710.44z"/>
    <path id="path3785" class="fil5" d="M3058.42 4349.61c0,81.17 -74.3,147.02 -165.95,147.02 -91.64,0 -165.95,-65.84 -165.95,-147.02 0,-81.21 74.31,-147.04 165.95,-147.04 91.65,0 165.95,65.82 165.95,147.04z"/>
    <path class="fil6" d="M3184.96 4349.61c0,78.13 -35.02,148.22 -91.61,198.35 -52.44,46.45 -123.55,75.19 -200.88,75.19 -77.33,0 -148.43,-28.74 -200.87,-75.19 -56.6,-50.14 -91.62,-120.23 -91.62,-198.35 0,-78.14 35.01,-148.23 91.61,-198.37 52.44,-46.45 123.55,-75.19 200.88,-75.19 77.34,0 148.44,28.74 200.88,75.19 56.6,50.15 91.61,120.23 91.61,198.37zm-258.68 9.55c3.47,-3.07 5.61,-6.5 5.61,-9.55 0,-3.06 -2.14,-6.5 -5.61,-9.57 -7.63,-6.75 -19.51,-10.93 -33.82,-10.93 -14.31,0 -26.19,4.18 -33.82,10.94 -3.47,3.06 -5.61,6.5 -5.61,9.56 0,3.04 2.15,6.47 5.61,9.55 7.63,6.75 19.5,10.93 33.81,10.93 14.31,0 26.18,-4.18 33.81,-10.93z"/>
    <path id="path3785_1" class="fil5" d="M3058.42 4349.61c0,81.17 -74.3,147.02 -165.95,147.02 -91.64,0 -165.95,-65.84 -165.95,-147.02 0,-81.21 74.31,-147.04 165.95,-147.04 91.65,0 165.95,65.82 165.95,147.04z"/>
    <path class="fil6" d="M3059.6 4349.61c0,40.94 -18.74,78.01 -49.01,104.82 -30.24,26.79 -72,43.36 -118.12,43.36 -46.11,0 -87.88,-16.58 -118.11,-43.36 -30.28,-26.83 -49.02,-63.89 -49.02,-104.82 0,-40.95 18.73,-78.01 49.01,-104.84 30.24,-26.79 72.01,-43.36 118.12,-43.36 46.12,0 87.88,16.58 118.12,43.36 30.28,26.83 49.01,63.89 49.01,104.84zm-50.56 103.08c29.79,-26.39 48.22,-62.83 48.22,-103.08 0,-40.26 -18.42,-76.71 -48.21,-103.1 -29.83,-26.42 -71.04,-42.76 -116.58,-42.76 -45.53,0 -86.75,16.34 -116.58,42.77 -29.79,26.38 -48.21,62.83 -48.21,103.09 0,40.24 18.43,76.69 48.22,103.08 29.83,26.42 71.04,42.76 116.57,42.76 45.53,0 86.75,-16.34 116.57,-42.76z"/>
    <path id="path3785_2" class="fil5" d="M3058.42 4349.61c0,81.17 -74.3,147.02 -165.95,147.02 -91.64,0 -165.95,-65.84 -165.95,-147.02 0,-81.21 74.31,-147.04 165.95,-147.04 91.65,0 165.95,65.82 165.95,147.04z"/>
    <path class="fil6" d="M3184.96 4349.61c0,78.13 -35.02,148.22 -91.61,198.35 -52.44,46.45 -123.55,75.19 -200.88,75.19 -77.33,0 -148.43,-28.74 -200.87,-75.19 -56.6,-50.14 -91.62,-120.23 -91.62,-198.35 0,-78.14 35.01,-148.23 91.61,-198.37 52.44,-46.45 123.55,-75.19 200.88,-75.19 77.34,0 148.44,28.74 200.88,75.19 56.6,50.15 91.61,120.23 91.61,198.37zm-258.68 9.55c3.47,-3.07 5.61,-6.5 5.61,-9.55 0,-3.06 -2.14,-6.5 -5.61,-9.57 -7.63,-6.75 -19.51,-10.93 -33.82,-10.93 -14.31,0 -26.19,4.18 -33.82,10.94 -3.47,3.06 -5.61,6.5 -5.61,9.56 0,3.04 2.15,6.47 5.61,9.55 7.63,6.75 19.5,10.93 33.81,10.93 14.31,0 26.18,-4.18 33.81,-10.93z"/>
    <path id="path3785_3" class="fil5" d="M3058.42 4349.61c0,81.17 -74.3,147.02 -165.95,147.02 -91.64,0 -165.95,-65.84 -165.95,-147.02 0,-81.21 74.31,-147.04 165.95,-147.04 91.65,0 165.95,65.82 165.95,147.04z"/>
    <path class="fil6" d="M3059.6 4349.61c0,40.94 -18.74,78.01 -49.01,104.82 -30.24,26.79 -72,43.36 -118.12,43.36 -46.11,0 -87.88,-16.58 -118.11,-43.36 -30.28,-26.83 -49.02,-63.89 -49.02,-104.82 0,-40.95 18.73,-78.01 49.01,-104.84 30.24,-26.79 72.01,-43.36 118.12,-43.36 46.12,0 87.88,16.58 118.12,43.36 30.28,26.83 49.01,63.89 49.01,104.84zm-50.56 103.08c29.79,-26.39 48.22,-62.83 48.22,-103.08 0,-40.26 -18.42,-76.71 -48.21,-103.1 -29.83,-26.42 -71.04,-42.76 -116.58,-42.76 -45.53,0 -86.75,16.34 -116.58,42.77 -29.79,26.38 -48.21,62.83 -48.21,103.09 0,40.24 18.43,76.69 48.22,103.08 29.83,26.42 71.04,42.76 116.57,42.76 45.53,0 86.75,-16.34 116.57,-42.76z"/>
    <path id="path3785_4" class="fil4" d="M4620.77 4349.61c0,81.17 -74.31,147.02 -165.96,147.02 -91.63,0 -165.95,-65.84 -165.95,-147.02 0,-81.21 74.32,-147.04 165.95,-147.04 91.65,0 165.96,65.82 165.96,147.04z"/>
    <path class="fil7" d="M4747.3 4349.61c0,78.13 -35.02,148.22 -91.61,198.35 -52.44,46.45 -123.54,75.19 -200.88,75.19 -77.32,0 -148.43,-28.74 -200.87,-75.19 -56.6,-50.14 -91.61,-120.23 -91.61,-198.35 0,-78.14 35.01,-148.23 91.6,-198.37 52.45,-46.45 123.55,-75.19 200.88,-75.19 77.34,0 148.44,28.74 200.89,75.19 56.6,50.15 91.6,120.23 91.6,198.37zm-258.67 9.55c3.47,-3.07 5.61,-6.5 5.61,-9.55 0,-3.07 -2.14,-6.5 -5.61,-9.57 -7.63,-6.75 -19.5,-10.93 -33.82,-10.93 -14.31,0 -26.18,4.18 -33.81,10.94 -3.47,3.06 -5.61,6.5 -5.61,9.56 0,3.04 2.15,6.48 5.61,9.55 7.63,6.75 19.51,10.93 33.81,10.93 14.32,0 26.19,-4.18 33.82,-10.93z"/>
    <path id="path3785_5" class="fil4" d="M4620.77 4349.61c0,81.17 -74.31,147.02 -165.96,147.02 -91.63,0 -165.95,-65.84 -165.95,-147.02 0,-81.21 74.32,-147.04 165.95,-147.04 91.65,0 165.96,65.82 165.96,147.04z"/>
    <path class="fil7" d="M4747.3 4349.61c0,78.13 -35.02,148.22 -91.61,198.35 -52.44,46.45 -123.54,75.19 -200.88,75.19 -77.32,0 -148.43,-28.74 -200.87,-75.19 -56.6,-50.14 -91.61,-120.23 -91.61,-198.35 0,-78.14 35.01,-148.23 91.6,-198.37 52.45,-46.45 123.55,-75.19 200.88,-75.19 77.34,0 148.44,28.74 200.89,75.19 56.6,50.15 91.6,120.23 91.6,198.37zm-258.67 9.55c3.47,-3.07 5.61,-6.5 5.61,-9.55 0,-3.07 -2.14,-6.5 -5.61,-9.57 -7.63,-6.75 -19.5,-10.93 -33.82,-10.93 -14.31,0 -26.18,4.18 -33.81,10.94 -3.47,3.06 -5.61,6.5 -5.61,9.56 0,3.04 2.15,6.48 5.61,9.55 7.63,6.75 19.51,10.93 33.81,10.93 14.32,0 26.19,-4.18 33.82,-10.93z"/>
    <path id="path3785_6" class="fil4" d="M4620.77 4349.61c0,81.17 -74.31,147.02 -165.96,147.02 -91.63,0 -165.95,-65.84 -165.95,-147.02 0,-81.21 74.32,-147.04 165.95,-147.04 91.65,0 165.96,65.82 165.96,147.04z"/>
    <path class="fil3" d="M4621.94 4349.61c0,40.94 -18.74,78.01 -49.01,104.82 -30.24,26.79 -72,43.36 -118.12,43.36 -46.11,0 -87.87,-16.58 -118.11,-43.36 -30.28,-26.83 -49.01,-63.88 -49.01,-104.82 0,-40.95 18.73,-78.01 49,-104.84 30.24,-26.79 72.01,-43.36 118.12,-43.36 46.12,0 87.89,16.57 118.12,43.36 30.28,26.83 49.01,63.89 49.01,104.84zm-50.55 103.08c29.79,-26.39 48.21,-62.83 48.21,-103.08 0,-40.26 -18.42,-76.71 -48.21,-103.1 -29.82,-26.42 -71.04,-42.76 -116.58,-42.76 -45.52,0 -86.75,16.34 -116.57,42.77 -29.79,26.38 -48.22,62.83 -48.22,103.09 0,40.24 18.43,76.69 48.22,103.08 29.83,26.42 71.04,42.76 116.57,42.76 45.53,0 86.75,-16.34 116.58,-42.76z"/>
    <path id="path3785_7" class="fil4" d="M4620.77 4349.61c0,81.17 -74.31,147.02 -165.96,147.02 -91.63,0 -165.95,-65.84 -165.95,-147.02 0,-81.21 74.32,-147.04 165.95,-147.04 91.65,0 165.96,65.82 165.96,147.04z"/>
    <path class="fil3" d="M4621.94 4349.61c0,40.94 -18.74,78.01 -49.01,104.82 -30.24,26.79 -72,43.36 -118.12,43.36 -46.11,0 -87.87,-16.58 -118.11,-43.36 -30.28,-26.83 -49.01,-63.88 -49.01,-104.82 0,-40.95 18.73,-78.01 49,-104.84 30.24,-26.79 72.01,-43.36 118.12,-43.36 46.12,0 87.89,16.57 118.12,43.36 30.28,26.83 49.01,63.89 49.01,104.84zm-50.55 103.08c29.79,-26.39 48.21,-62.83 48.21,-103.08 0,-40.26 -18.42,-76.71 -48.21,-103.1 -29.82,-26.42 -71.04,-42.76 -116.58,-42.76 -45.52,0 -86.75,16.34 -116.57,42.77 -29.79,26.38 -48.22,62.83 -48.22,103.09 0,40.24 18.43,76.69 48.22,103.08 29.83,26.42 71.04,42.76 116.57,42.76 45.53,0 86.75,-16.34 116.58,-42.76z"/>
    <path id="path3763" class="fil4" d="M3651.34 5854.2c-139.72,0 -459.74,273.75 -459.74,461.03 0,51.29 15.81,99.83 43.99,143.4 53.06,22.3 104.54,54.76 146.84,95.13 19.78,18.87 36.12,38.19 49.14,57.39 67.71,27.46 145.79,43.14 228.95,43.14 78.54,0 152.52,-13.97 217.54,-38.66 13.5,-20.66 30.8,-41.52 52.13,-61.86 45.32,-43.25 101.17,-77.4 158.24,-99.73 26.32,-42.35 41.01,-89.33 41.01,-138.8 0,-187.28 -329.21,-461.03 -478.08,-461.03z"/>
    <path id="path3763_8" class="fil4" d="M3651.34 5854.2c-139.72,0 -459.74,273.75 -459.74,461.03 0,51.29 15.81,99.83 43.99,143.4 53.06,22.3 104.54,54.76 146.84,95.13 19.78,18.87 36.12,38.19 49.14,57.39 67.71,27.46 145.79,43.14 228.95,43.14 78.54,0 152.52,-13.97 217.54,-38.66 13.5,-20.66 30.8,-41.52 52.13,-61.86 45.32,-43.25 101.17,-77.4 158.24,-99.73 26.32,-42.35 41.01,-89.33 41.01,-138.8 0,-187.28 -329.21,-461.03 -478.08,-461.03z"/>
    <path class="fil8" d="M3277.15 5594.65c-36.81,23.63 -85.8,12.94 -109.43,-23.87 -23.62,-36.81 -12.93,-85.8 23.88,-109.43 124.58,-79.99 293.08,-142.67 482.43,-142.67 150.93,0 314.99,39.71 480.41,142.05 37.15,22.95 48.66,71.66 25.73,108.81 -22.95,37.15 -71.66,48.66 -108.8,25.73 -137.26,-84.92 -272.87,-117.87 -397.33,-117.87 -155.9,0 -294.49,51.51 -396.88,117.25z"/>
   </g>
   <g>
    <path class="fil7" d="M6888.99 5322.12l0 -3377.15 1212.8 0c434.61,0 765.52,79.16 991.93,238.28 226.41,159.12 339.61,390.28 339.61,692.69 0,174.16 -40.37,323.79 -120.33,447.28 -80.75,123.5 -198.7,214.54 -354.65,273.11 175.75,45.92 311.11,133 405.32,259.66 94.21,127.45 141.71,281.83 141.71,464.69 0,331.7 -104.5,580.28 -314.29,747.31 -209.78,166.25 -520.11,250.95 -930.97,254.12l-1371.12 0zm813.81 -1439.21l0 812.23 533.57 0c147.25,0 259.65,-34.04 338.83,-101.33 79.16,-67.29 117.95,-162.29 117.95,-285 0,-282.62 -139.33,-424.32 -419.58,-425.9l-570.77 0zm0 -531.98l425.11 0c177.33,-1.58 303.99,-34.05 379.99,-97.38 75.99,-63.33 113.99,-156.74 113.99,-280.24 0,-142.49 -41.17,-244.62 -123.5,-307.16 -81.54,-62.54 -213.74,-94.21 -396.61,-94.21l-398.99 0 0 778.98zm2877.14 1344.21l1417.04 0 0 626.98 -2231.65 0 0 -3377.15 814.6 0 0 2750.17zm4166.72 -2750.17l0 2211.06c0,250.96 -53.04,467.86 -159.91,650.74 -106.87,183.66 -259.65,322.98 -459.15,418.77 -199.49,95.79 -435.41,144.08 -706.94,144.08 -411.65,0 -735.44,-106.87 -972.14,-319.82 -236.71,-213.74 -357.04,-505.86 -361.78,-877.14l0 -2227.69 818.55 0 0 2243.52c9.51,369.69 181.29,554.15 515.37,554.15 167.82,0 296.07,-46.7 382.36,-139.32 86.29,-92.62 129.83,-243.83 129.83,-452.03l0 -2206.32 813.81 0zm319.34 3377.15l0 -3377.15 1087.71 0c298.45,0 566.82,67.29 805.11,202.66 238.28,135.37 424.32,326.15 557.32,573.15 133.79,246.99 201.87,523.28 203.45,829.64l0 155.16c0,308.74 -65.71,586.61 -196.32,831.23 -130.62,245.4 -314.29,436.98 -551.78,575.53 -237.49,138.53 -501.9,208.2 -794.01,209.78l-1111.47 0zm814.6 -2750.17l0 2123.19 282.62 0c233.53,0 413.24,-83.12 538.31,-249.36 125.08,-166.25 187.62,-413.24 187.62,-741.78l0 -145.66c0,-326.94 -62.54,-572.36 -187.62,-737.82 -125.07,-165.45 -307.95,-248.57 -547.82,-248.57l-273.11 0zm2936.52 2750.17l-811.43 0 0 -3377.15 811.43 0 0 3377.15zm2962.64 -2750.17l-1013.3 0 0 2750.17 -814.6 0 0 -2750.17 -995.09 0 0 -626.98 2823 0 0 626.98z"/>
    <path class="fil1" d="M7282.24 6557.17l-333.01 0 0 334.35 -60.25 0 0 -713.89 442.29 0 0 51.21 -382.04 0 0 277.12 333.01 0 0 51.21zm335.9 283.14l352.6 0 0 51.21 -413.35 0 0 -713.89 60.74 0 0 662.68zm966.79 -149.6l-323.97 0 -73.63 200.81 -63.26 0 270.26 -713.89 57.23 0 270.26 713.89 -62.75 0 -74.13 -200.81zm-305.4 -51.21l286.32 0 -143.08 -388.41 -143.25 388.41zm1071.71 -410.66l-244.65 0 0 662.68 -60.42 0 0 -662.68 -244.15 0 0 -51.21 549.21 0 0 51.21zm273.66 372.51l-234.79 0 0 -49.2 234.79 0 0 49.2zm615.54 -44.18l-333.01 0 0 334.35 -60.25 0 0 -713.89 442.29 0 0 51.21 -382.04 0 0 277.12 333.01 0 0 51.21zm348.79 334.35l-60.42 0 0 -713.89 60.42 0 0 713.89zm357.99 -51.21l352.6 0 0 51.21 -413.35 0 0 -713.89 60.74 0 0 662.68zm966.13 -291.17l-334.01 0 0 291.17 383.89 0 0 51.21 -444.13 0 0 -713.89 441.79 0 0 51.21 -381.54 0 0 269.09 334.01 0 0 51.21zm1029.89 119.82c-8.2,75.13 -34.98,132.71 -80.66,172.7 -45.52,40 -106.27,59.91 -182.07,59.91 -52.88,0 -99.73,-13.22 -140.4,-39.66 -40.83,-26.61 -72.29,-64.09 -94.37,-112.63 -22.26,-48.69 -33.64,-104.09 -33.81,-166.68l0 -92.7c0,-63.43 11.04,-119.66 33.3,-168.69 22.25,-49.2 54.05,-87.02 95.72,-113.63 41.83,-26.61 89.69,-40 143.92,-40 76.47,0 136.89,20.59 181.23,61.92 44.18,41.17 69.94,98.23 77.14,171.19l-60.74 0c-15.06,-121.33 -80.83,-181.91 -197.63,-181.91 -64.6,0 -116.14,24.26 -154.63,72.63 -38.31,48.37 -57.57,115.3 -57.57,200.64l0 87.35c0,82.5 18.75,148.27 56.06,197.31 37.49,49.03 88.03,73.63 151.78,73.63 63.09,0 110.62,-15.06 142.58,-45.36 32.12,-30.28 51.87,-75.64 59.41,-136.05l60.74 0zm330.39 -491.32l263.23 630.05 264.24 -630.05 80.32 0 0 713.89 -60.24 0 0 -310.92 4.85 -318.63 -265.74 629.55 -46.52 0 -264.73 -627.04 4.85 314.28 0 312.76 -60.25 0 0 -713.89 80 0zm1296.12 538.34c0,-39.49 -13.88,-70.79 -41.66,-93.88 -27.79,-23.09 -78.66,-44.84 -152.46,-65.77 -73.8,-20.75 -127.85,-43.34 -161.82,-67.93 -48.36,-34.64 -72.46,-80.16 -72.46,-136.39 0,-54.56 22.43,-98.9 67.27,-133.2 45.02,-34.14 102.42,-51.21 172.37,-51.21 47.36,0 89.86,9.21 127.35,27.44 37.31,18.41 66.26,43.85 87.02,76.65 20.58,32.63 30.79,69.11 30.79,109.28l-60.74 0c0,-48.7 -16.74,-88.03 -50.04,-117.65 -33.29,-29.62 -78.14,-44.51 -134.37,-44.51 -54.56,0 -98.07,12.22 -130.36,36.48 -32.29,24.43 -48.53,56.23 -48.53,95.38 0,36.31 14.57,65.93 43.68,88.86 29.11,22.93 75.64,43.01 139.73,60.58 63.92,17.41 112.46,35.65 145.59,54.39 32.97,18.91 57.73,41.33 74.47,67.61 16.74,26.11 24.94,57.07 24.94,92.88 0,56.23 -22.43,101.42 -67.28,135.55 -45.01,33.97 -104.25,51.04 -177.72,51.04 -50.37,0 -96.55,-9.04 -138.56,-26.95 -42,-18.07 -73.8,-43.18 -95.55,-75.64 -21.76,-32.29 -32.63,-69.45 -32.63,-111.28l60.24 0c0,50.2 18.91,90.03 56.4,118.97 37.65,29.12 87.69,43.68 150.11,43.68 55.56,0 100.07,-12.22 133.71,-36.82 33.81,-24.43 50.53,-57.06 50.53,-97.56z"/>
   </g>
  </g>
 </g>
</svg>
